  0
SECTION
  2
HEADER
  9
$ACADVER
  1
AC1009
  9
$INSBASE
 10
0.0
 20
0.0
 30
0.0
  9
$EXTMIN
 10
0.0
 20
0.0
 30
0.0
  9
$EXTMAX
 10
0.0
 20
0.0
 30
0.0
  0
ENDSEC
  0
SECTION
  2
TABLES
  0
TABLE
  2
VPORT
 70
0
  0
ENDTAB
  0
TABLE
  2
LTYPE
 70
1
  0
LTYPE
  2
CONTINUOUS
 70
0
  3
Solid line
 72
65
 73
0
 40
0.0
  0
ENDTAB
  0
TABLE
  2
LAYER
 70
1
  0
LAYER
  2
0
 70
64
 62
7
  6
continuous
  0
ENDTAB
  0
TABLE
  2
STYLE
 70
1
  0
STYLE
  2
STANDARD
 70
0
 40
0
 41
1.0
 50
0.0
 71
0
 42
1
 3
ARIAL.TTF
 4

  0
ENDTAB
  0
TABLE
  2
VIEW
 70
0
  0
ENDTAB
  0
ENDSEC
  0
SECTION
  2
BLOCKS
  0
ENDSEC
  0
SECTION
  2
ENTITIES
  0
POLYLINE
  8
0
 62
0
 70
1
 66
1
 10
0.0
 20
0.0
 30
0.0
  0
VERTEX
  8
0
 10
104.203754
 20
-56.0197
 30
0.0
  0
VERTEX
  8
0
 10
107.378754
 20
-56.0197
 30
0.0
  0
VERTEX
  8
0
 10
110.553754
 20
-56.0197
 30
0.0
  0
VERTEX
  8
0
 10
111.188754
 20
-55.3847
 30
0.0
  0
VERTEX
  8
0
 10
111.188754
 20
-52.2097
 30
0.0
  0
VERTEX
  8
0
 10
111.188754
 20
-49.0347
 30
0.0
  0
VERTEX
  8
0
 10
110.553754
 20
-48.3997
 30
0.0
  0
VERTEX
  8
0
 10
107.378754
 20
-48.3997
 30
0.0
  0
VERTEX
  8
0
 10
104.203754
 20
-48.3997
 30
0.0
  0
VERTEX
  8
0
 10
103.568754
 20
-49.0347
 30
0.0
  0
VERTEX
  8
0
 10
103.568754
 20
-52.2097
 30
0.0
  0
VERTEX
  8
0
 10
103.568754
 20
-55.3847
 30
0.0
  0
SEQEND
  8
0
  0
POLYLINE
  8
0
 62
0
 70
1
 66
1
 10
0.0
 20
0.0
 30
0.0
  0
VERTEX
  8
0
 10
41.973754
 20
-91.5797
 30
0.0
  0
VERTEX
  8
0
 10
45.148754
 20
-91.5797
 30
0.0
  0
VERTEX
  8
0
 10
48.323754
 20
-91.5797
 30
0.0
  0
VERTEX
  8
0
 10
48.958754
 20
-90.9447
 30
0.0
  0
VERTEX
  8
0
 10
48.958754
 20
-87.7697
 30
0.0
  0
VERTEX
  8
0
 10
48.958754
 20
-84.5947
 30
0.0
  0
VERTEX
  8
0
 10
48.323754
 20
-83.9597
 30
0.0
  0
VERTEX
  8
0
 10
45.148754
 20
-83.9597
 30
0.0
  0
VERTEX
  8
0
 10
41.973754
 20
-83.9597
 30
0.0
  0
VERTEX
  8
0
 10
41.338754
 20
-84.5947
 30
0.0
  0
VERTEX
  8
0
 10
41.338754
 20
-87.7697
 30
0.0
  0
VERTEX
  8
0
 10
41.338754
 20
-90.9447
 30
0.0
  0
SEQEND
  8
0
  0
POLYLINE
  8
0
 62
0
 70
1
 66
1
 10
0.0
 20
0.0
 30
0.0
  0
VERTEX
  8
0
 10
41.973754
 20
-100.4697
 30
0.0
  0
VERTEX
  8
0
 10
45.148754
 20
-100.4697
 30
0.0
  0
VERTEX
  8
0
 10
48.323754
 20
-100.4697
 30
0.0
  0
VERTEX
  8
0
 10
48.958754
 20
-99.8347
 30
0.0
  0
VERTEX
  8
0
 10
48.958754
 20
-96.6597
 30
0.0
  0
VERTEX
  8
0
 10
48.958754
 20
-93.4847
 30
0.0
  0
VERTEX
  8
0
 10
48.323754
 20
-92.8497
 30
0.0
  0
VERTEX
  8
0
 10
45.148754
 20
-92.8497
 30
0.0
  0
VERTEX
  8
0
 10
41.973754
 20
-92.8497
 30
0.0
  0
VERTEX
  8
0
 10
41.338754
 20
-93.4847
 30
0.0
  0
VERTEX
  8
0
 10
41.338754
 20
-96.6597
 30
0.0
  0
VERTEX
  8
0
 10
41.338754
 20
-99.8347
 30
0.0
  0
SEQEND
  8
0
  0
POLYLINE
  8
0
 62
0
 70
1
 66
1
 10
0.0
 20
0.0
 30
0.0
  0
VERTEX
  8
0
 10
41.973754
 20
-109.3597
 30
0.0
  0
VERTEX
  8
0
 10
45.148754
 20
-109.3597
 30
0.0
  0
VERTEX
  8
0
 10
48.323754
 20
-109.3597
 30
0.0
  0
VERTEX
  8
0
 10
48.958754
 20
-108.7247
 30
0.0
  0
VERTEX
  8
0
 10
48.958754
 20
-105.5497
 30
0.0
  0
VERTEX
  8
0
 10
48.958754
 20
-102.3747
 30
0.0
  0
VERTEX
  8
0
 10
48.323754
 20
-101.7397
 30
0.0
  0
VERTEX
  8
0
 10
45.148754
 20
-101.7397
 30
0.0
  0
VERTEX
  8
0
 10
41.973754
 20
-101.7397
 30
0.0
  0
VERTEX
  8
0
 10
41.338754
 20
-102.3747
 30
0.0
  0
VERTEX
  8
0
 10
41.338754
 20
-105.5497
 30
0.0
  0
VERTEX
  8
0
 10
41.338754
 20
-108.7247
 30
0.0
  0
SEQEND
  8
0
  0
POLYLINE
  8
0
 62
0
 70
1
 66
1
 10
0.0
 20
0.0
 30
0.0
  0
VERTEX
  8
0
 10
86.423754
 20
-56.0197
 30
0.0
  0
VERTEX
  8
0
 10
89.598754
 20
-56.0197
 30
0.0
  0
VERTEX
  8
0
 10
92.773754
 20
-56.0197
 30
0.0
  0
VERTEX
  8
0
 10
93.408754
 20
-55.3847
 30
0.0
  0
VERTEX
  8
0
 10
93.408754
 20
-52.2097
 30
0.0
  0
VERTEX
  8
0
 10
93.408754
 20
-49.0347
 30
0.0
  0
VERTEX
  8
0
 10
92.773754
 20
-48.3997
 30
0.0
  0
VERTEX
  8
0
 10
89.598754
 20
-48.3997
 30
0.0
  0
VERTEX
  8
0
 10
86.423754
 20
-48.3997
 30
0.0
  0
VERTEX
  8
0
 10
85.788754
 20
-49.0347
 30
0.0
  0
VERTEX
  8
0
 10
85.788754
 20
-52.2097
 30
0.0
  0
VERTEX
  8
0
 10
85.788754
 20
-55.3847
 30
0.0
  0
SEQEND
  8
0
  0
POLYLINE
  8
0
 62
0
 70
1
 66
1
 10
0.0
 20
0.0
 30
0.0
  0
VERTEX
  8
0
 10
41.973754
 20
-47.1297
 30
0.0
  0
VERTEX
  8
0
 10
45.148754
 20
-47.1297
 30
0.0
  0
VERTEX
  8
0
 10
48.323754
 20
-47.1297
 30
0.0
  0
VERTEX
  8
0
 10
48.958754
 20
-46.4947
 30
0.0
  0
VERTEX
  8
0
 10
48.958754
 20
-43.3197
 30
0.0
  0
VERTEX
  8
0
 10
48.958754
 20
-40.1447
 30
0.0
  0
VERTEX
  8
0
 10
48.323754
 20
-39.5097
 30
0.0
  0
VERTEX
  8
0
 10
45.148754
 20
-39.5097
 30
0.0
  0
VERTEX
  8
0
 10
41.973754
 20
-39.5097
 30
0.0
  0
VERTEX
  8
0
 10
41.338754
 20
-40.1447
 30
0.0
  0
VERTEX
  8
0
 10
41.338754
 20
-43.3197
 30
0.0
  0
VERTEX
  8
0
 10
41.338754
 20
-46.4947
 30
0.0
  0
SEQEND
  8
0
  0
POLYLINE
  8
0
 62
0
 70
1
 66
1
 10
0.0
 20
0.0
 30
0.0
  0
VERTEX
  8
0
 10
41.973754
 20
-73.7997
 30
0.0
  0
VERTEX
  8
0
 10
45.148754
 20
-73.7997
 30
0.0
  0
VERTEX
  8
0
 10
48.323754
 20
-73.7997
 30
0.0
  0
VERTEX
  8
0
 10
48.958754
 20
-73.1647
 30
0.0
  0
VERTEX
  8
0
 10
48.958754
 20
-69.9897
 30
0.0
  0
VERTEX
  8
0
 10
48.958754
 20
-66.8147
 30
0.0
  0
VERTEX
  8
0
 10
48.323754
 20
-66.1797
 30
0.0
  0
VERTEX
  8
0
 10
45.148754
 20
-66.1797
 30
0.0
  0
VERTEX
  8
0
 10
41.973754
 20
-66.1797
 30
0.0
  0
VERTEX
  8
0
 10
41.338754
 20
-66.8147
 30
0.0
  0
VERTEX
  8
0
 10
41.338754
 20
-69.9897
 30
0.0
  0
VERTEX
  8
0
 10
41.338754
 20
-73.1647
 30
0.0
  0
SEQEND
  8
0
  0
POLYLINE
  8
0
 62
0
 70
1
 66
1
 10
0.0
 20
0.0
 30
0.0
  0
VERTEX
  8
0
 10
50.863754
 20
-47.1297
 30
0.0
  0
VERTEX
  8
0
 10
54.038754
 20
-47.1297
 30
0.0
  0
VERTEX
  8
0
 10
57.213754
 20
-47.1297
 30
0.0
  0
VERTEX
  8
0
 10
57.848754
 20
-46.4947
 30
0.0
  0
VERTEX
  8
0
 10
57.848754
 20
-43.3197
 30
0.0
  0
VERTEX
  8
0
 10
57.848754
 20
-40.1447
 30
0.0
  0
VERTEX
  8
0
 10
57.213754
 20
-39.5097
 30
0.0
  0
VERTEX
  8
0
 10
54.038754
 20
-39.5097
 30
0.0
  0
VERTEX
  8
0
 10
50.863754
 20
-39.5097
 30
0.0
  0
VERTEX
  8
0
 10
50.228754
 20
-40.1447
 30
0.0
  0
VERTEX
  8
0
 10
50.228754
 20
-43.3197
 30
0.0
  0
VERTEX
  8
0
 10
50.228754
 20
-46.4947
 30
0.0
  0
SEQEND
  8
0
  0
POLYLINE
  8
0
 62
0
 70
1
 66
1
 10
0.0
 20
0.0
 30
0.0
  0
VERTEX
  8
0
 10
50.863754
 20
-56.0197
 30
0.0
  0
VERTEX
  8
0
 10
54.038754
 20
-56.0197
 30
0.0
  0
VERTEX
  8
0
 10
57.213754
 20
-56.0197
 30
0.0
  0
VERTEX
  8
0
 10
57.848754
 20
-55.3847
 30
0.0
  0
VERTEX
  8
0
 10
57.848754
 20
-52.2097
 30
0.0
  0
VERTEX
  8
0
 10
57.848754
 20
-49.0347
 30
0.0
  0
VERTEX
  8
0
 10
57.213754
 20
-48.3997
 30
0.0
  0
VERTEX
  8
0
 10
54.038754
 20
-48.3997
 30
0.0
  0
VERTEX
  8
0
 10
50.863754
 20
-48.3997
 30
0.0
  0
VERTEX
  8
0
 10
50.228754
 20
-49.0347
 30
0.0
  0
VERTEX
  8
0
 10
50.228754
 20
-52.2097
 30
0.0
  0
VERTEX
  8
0
 10
50.228754
 20
-55.3847
 30
0.0
  0
SEQEND
  8
0
  0
POLYLINE
  8
0
 62
0
 70
1
 66
1
 10
0.0
 20
0.0
 30
0.0
  0
VERTEX
  8
0
 10
50.863754
 20
-64.9097
 30
0.0
  0
VERTEX
  8
0
 10
54.038754
 20
-64.9097
 30
0.0
  0
VERTEX
  8
0
 10
57.213754
 20
-64.9097
 30
0.0
  0
VERTEX
  8
0
 10
57.848754
 20
-64.2747
 30
0.0
  0
VERTEX
  8
0
 10
57.848754
 20
-61.0997
 30
0.0
  0
VERTEX
  8
0
 10
57.848754
 20
-57.9247
 30
0.0
  0
VERTEX
  8
0
 10
57.213754
 20
-57.2897
 30
0.0
  0
VERTEX
  8
0
 10
54.038754
 20
-57.2897
 30
0.0
  0
VERTEX
  8
0
 10
50.863754
 20
-57.2897
 30
0.0
  0
VERTEX
  8
0
 10
50.228754
 20
-57.9247
 30
0.0
  0
VERTEX
  8
0
 10
50.228754
 20
-61.0997
 30
0.0
  0
VERTEX
  8
0
 10
50.228754
 20
-64.2747
 30
0.0
  0
SEQEND
  8
0
  0
POLYLINE
  8
0
 62
0
 70
1
 66
1
 10
0.0
 20
0.0
 30
0.0
  0
VERTEX
  8
0
 10
41.973754
 20
-56.0197
 30
0.0
  0
VERTEX
  8
0
 10
45.148754
 20
-56.0197
 30
0.0
  0
VERTEX
  8
0
 10
48.323754
 20
-56.0197
 30
0.0
  0
VERTEX
  8
0
 10
48.958754
 20
-55.3847
 30
0.0
  0
VERTEX
  8
0
 10
48.958754
 20
-52.2097
 30
0.0
  0
VERTEX
  8
0
 10
48.958754
 20
-49.0347
 30
0.0
  0
VERTEX
  8
0
 10
48.323754
 20
-48.3997
 30
0.0
  0
VERTEX
  8
0
 10
45.148754
 20
-48.3997
 30
0.0
  0
VERTEX
  8
0
 10
41.973754
 20
-48.3997
 30
0.0
  0
VERTEX
  8
0
 10
41.338754
 20
-49.0347
 30
0.0
  0
VERTEX
  8
0
 10
41.338754
 20
-52.2097
 30
0.0
  0
VERTEX
  8
0
 10
41.338754
 20
-55.3847
 30
0.0
  0
SEQEND
  8
0
  0
POLYLINE
  8
0
 62
0
 70
1
 66
1
 10
0.0
 20
0.0
 30
0.0
  0
VERTEX
  8
0
 10
104.203754
 20
-64.9097
 30
0.0
  0
VERTEX
  8
0
 10
107.378754
 20
-64.9097
 30
0.0
  0
VERTEX
  8
0
 10
110.553754
 20
-64.9097
 30
0.0
  0
VERTEX
  8
0
 10
111.188754
 20
-64.2747
 30
0.0
  0
VERTEX
  8
0
 10
111.188754
 20
-61.0997
 30
0.0
  0
VERTEX
  8
0
 10
111.188754
 20
-57.9247
 30
0.0
  0
VERTEX
  8
0
 10
110.553754
 20
-57.2897
 30
0.0
  0
VERTEX
  8
0
 10
107.378754
 20
-57.2897
 30
0.0
  0
VERTEX
  8
0
 10
104.203754
 20
-57.2897
 30
0.0
  0
VERTEX
  8
0
 10
103.568754
 20
-57.9247
 30
0.0
  0
VERTEX
  8
0
 10
103.568754
 20
-61.0997
 30
0.0
  0
VERTEX
  8
0
 10
103.568754
 20
-64.2747
 30
0.0
  0
SEQEND
  8
0
  0
POLYLINE
  8
0
 62
0
 70
1
 66
1
 10
0.0
 20
0.0
 30
0.0
  0
VERTEX
  8
0
 10
41.973754
 20
-64.9097
 30
0.0
  0
VERTEX
  8
0
 10
45.148754
 20
-64.9097
 30
0.0
  0
VERTEX
  8
0
 10
48.323754
 20
-64.9097
 30
0.0
  0
VERTEX
  8
0
 10
48.958754
 20
-64.2747
 30
0.0
  0
VERTEX
  8
0
 10
48.958754
 20
-61.0997
 30
0.0
  0
VERTEX
  8
0
 10
48.958754
 20
-57.9247
 30
0.0
  0
VERTEX
  8
0
 10
48.323754
 20
-57.2897
 30
0.0
  0
VERTEX
  8
0
 10
45.148754
 20
-57.2897
 30
0.0
  0
VERTEX
  8
0
 10
41.973754
 20
-57.2897
 30
0.0
  0
VERTEX
  8
0
 10
41.338754
 20
-57.9247
 30
0.0
  0
VERTEX
  8
0
 10
41.338754
 20
-61.0997
 30
0.0
  0
VERTEX
  8
0
 10
41.338754
 20
-64.2747
 30
0.0
  0
SEQEND
  8
0
  0
POLYLINE
  8
0
 62
0
 70
1
 66
1
 10
0.0
 20
0.0
 30
0.0
  0
VERTEX
  8
0
 10
50.863754
 20
-73.7997
 30
0.0
  0
VERTEX
  8
0
 10
54.038754
 20
-73.7997
 30
0.0
  0
VERTEX
  8
0
 10
57.213754
 20
-73.7997
 30
0.0
  0
VERTEX
  8
0
 10
57.848754
 20
-73.1647
 30
0.0
  0
VERTEX
  8
0
 10
57.848754
 20
-69.9897
 30
0.0
  0
VERTEX
  8
0
 10
57.848754
 20
-66.8147
 30
0.0
  0
VERTEX
  8
0
 10
57.213754
 20
-66.1797
 30
0.0
  0
VERTEX
  8
0
 10
54.038754
 20
-66.1797
 30
0.0
  0
VERTEX
  8
0
 10
50.863754
 20
-66.1797
 30
0.0
  0
VERTEX
  8
0
 10
50.228754
 20
-66.8147
 30
0.0
  0
VERTEX
  8
0
 10
50.228754
 20
-69.9897
 30
0.0
  0
VERTEX
  8
0
 10
50.228754
 20
-73.1647
 30
0.0
  0
SEQEND
  8
0
  0
POLYLINE
  8
0
 62
0
 70
1
 66
1
 10
0.0
 20
0.0
 30
0.0
  0
VERTEX
  8
0
 10
50.863754
 20
-82.6897
 30
0.0
  0
VERTEX
  8
0
 10
54.038754
 20
-82.6897
 30
0.0
  0
VERTEX
  8
0
 10
57.213754
 20
-82.6897
 30
0.0
  0
VERTEX
  8
0
 10
57.848754
 20
-82.0547
 30
0.0
  0
VERTEX
  8
0
 10
57.848754
 20
-78.8797
 30
0.0
  0
VERTEX
  8
0
 10
57.848754
 20
-75.7047
 30
0.0
  0
VERTEX
  8
0
 10
57.213754
 20
-75.0697
 30
0.0
  0
VERTEX
  8
0
 10
54.038754
 20
-75.0697
 30
0.0
  0
VERTEX
  8
0
 10
50.863754
 20
-75.0697
 30
0.0
  0
VERTEX
  8
0
 10
50.228754
 20
-75.7047
 30
0.0
  0
VERTEX
  8
0
 10
50.228754
 20
-78.8797
 30
0.0
  0
VERTEX
  8
0
 10
50.228754
 20
-82.0547
 30
0.0
  0
SEQEND
  8
0
  0
POLYLINE
  8
0
 62
0
 70
1
 66
1
 10
0.0
 20
0.0
 30
0.0
  0
VERTEX
  8
0
 10
77.533754
 20
-47.1297
 30
0.0
  0
VERTEX
  8
0
 10
80.708754
 20
-47.1297
 30
0.0
  0
VERTEX
  8
0
 10
83.883754
 20
-47.1297
 30
0.0
  0
VERTEX
  8
0
 10
84.518754
 20
-46.4947
 30
0.0
  0
VERTEX
  8
0
 10
84.518754
 20
-43.3197
 30
0.0
  0
VERTEX
  8
0
 10
84.518754
 20
-40.1447
 30
0.0
  0
VERTEX
  8
0
 10
83.883754
 20
-39.5097
 30
0.0
  0
VERTEX
  8
0
 10
80.708754
 20
-39.5097
 30
0.0
  0
VERTEX
  8
0
 10
77.533754
 20
-39.5097
 30
0.0
  0
VERTEX
  8
0
 10
76.898754
 20
-40.1447
 30
0.0
  0
VERTEX
  8
0
 10
76.898754
 20
-43.3197
 30
0.0
  0
VERTEX
  8
0
 10
76.898754
 20
-46.4947
 30
0.0
  0
SEQEND
  8
0
  0
POLYLINE
  8
0
 62
0
 70
1
 66
1
 10
0.0
 20
0.0
 30
0.0
  0
VERTEX
  8
0
 10
77.533754
 20
-56.0197
 30
0.0
  0
VERTEX
  8
0
 10
80.708754
 20
-56.0197
 30
0.0
  0
VERTEX
  8
0
 10
83.883754
 20
-56.0197
 30
0.0
  0
VERTEX
  8
0
 10
84.518754
 20
-55.3847
 30
0.0
  0
VERTEX
  8
0
 10
84.518754
 20
-52.2097
 30
0.0
  0
VERTEX
  8
0
 10
84.518754
 20
-49.0347
 30
0.0
  0
VERTEX
  8
0
 10
83.883754
 20
-48.3997
 30
0.0
  0
VERTEX
  8
0
 10
80.708754
 20
-48.3997
 30
0.0
  0
VERTEX
  8
0
 10
77.533754
 20
-48.3997
 30
0.0
  0
VERTEX
  8
0
 10
76.898754
 20
-49.0347
 30
0.0
  0
VERTEX
  8
0
 10
76.898754
 20
-52.2097
 30
0.0
  0
VERTEX
  8
0
 10
76.898754
 20
-55.3847
 30
0.0
  0
SEQEND
  8
0
  0
POLYLINE
  8
0
 62
0
 70
1
 66
1
 10
0.0
 20
0.0
 30
0.0
  0
VERTEX
  8
0
 10
77.533754
 20
-64.9097
 30
0.0
  0
VERTEX
  8
0
 10
80.708754
 20
-64.9097
 30
0.0
  0
VERTEX
  8
0
 10
83.883754
 20
-64.9097
 30
0.0
  0
VERTEX
  8
0
 10
84.518754
 20
-64.2747
 30
0.0
  0
VERTEX
  8
0
 10
84.518754
 20
-61.0997
 30
0.0
  0
VERTEX
  8
0
 10
84.518754
 20
-57.9247
 30
0.0
  0
VERTEX
  8
0
 10
83.883754
 20
-57.2897
 30
0.0
  0
VERTEX
  8
0
 10
80.708754
 20
-57.2897
 30
0.0
  0
VERTEX
  8
0
 10
77.533754
 20
-57.2897
 30
0.0
  0
VERTEX
  8
0
 10
76.898754
 20
-57.9247
 30
0.0
  0
VERTEX
  8
0
 10
76.898754
 20
-61.0997
 30
0.0
  0
VERTEX
  8
0
 10
76.898754
 20
-64.2747
 30
0.0
  0
SEQEND
  8
0
  0
POLYLINE
  8
0
 62
0
 70
1
 66
1
 10
0.0
 20
0.0
 30
0.0
  0
VERTEX
  8
0
 10
77.533754
 20
-73.7997
 30
0.0
  0
VERTEX
  8
0
 10
80.708754
 20
-73.7997
 30
0.0
  0
VERTEX
  8
0
 10
83.883754
 20
-73.7997
 30
0.0
  0
VERTEX
  8
0
 10
84.518754
 20
-73.1647
 30
0.0
  0
VERTEX
  8
0
 10
84.518754
 20
-69.9897
 30
0.0
  0
VERTEX
  8
0
 10
84.518754
 20
-66.8147
 30
0.0
  0
VERTEX
  8
0
 10
83.883754
 20
-66.1797
 30
0.0
  0
VERTEX
  8
0
 10
80.708754
 20
-66.1797
 30
0.0
  0
VERTEX
  8
0
 10
77.533754
 20
-66.1797
 30
0.0
  0
VERTEX
  8
0
 10
76.898754
 20
-66.8147
 30
0.0
  0
VERTEX
  8
0
 10
76.898754
 20
-69.9897
 30
0.0
  0
VERTEX
  8
0
 10
76.898754
 20
-73.1647
 30
0.0
  0
SEQEND
  8
0
  0
POLYLINE
  8
0
 62
0
 70
1
 66
1
 10
0.0
 20
0.0
 30
0.0
  0
VERTEX
  8
0
 10
77.533754
 20
-82.6897
 30
0.0
  0
VERTEX
  8
0
 10
80.708754
 20
-82.6897
 30
0.0
  0
VERTEX
  8
0
 10
83.883754
 20
-82.6897
 30
0.0
  0
VERTEX
  8
0
 10
84.518754
 20
-82.0547
 30
0.0
  0
VERTEX
  8
0
 10
84.518754
 20
-78.8797
 30
0.0
  0
VERTEX
  8
0
 10
84.518754
 20
-75.7047
 30
0.0
  0
VERTEX
  8
0
 10
83.883754
 20
-75.0697
 30
0.0
  0
VERTEX
  8
0
 10
80.708754
 20
-75.0697
 30
0.0
  0
VERTEX
  8
0
 10
77.533754
 20
-75.0697
 30
0.0
  0
VERTEX
  8
0
 10
76.898754
 20
-75.7047
 30
0.0
  0
VERTEX
  8
0
 10
76.898754
 20
-78.8797
 30
0.0
  0
VERTEX
  8
0
 10
76.898754
 20
-82.0547
 30
0.0
  0
SEQEND
  8
0
  0
POLYLINE
  8
0
 62
0
 70
1
 66
1
 10
0.0
 20
0.0
 30
0.0
  0
VERTEX
  8
0
 10
95.313754
 20
-91.5797
 30
0.0
  0
VERTEX
  8
0
 10
98.488754
 20
-91.5797
 30
0.0
  0
VERTEX
  8
0
 10
101.663754
 20
-91.5797
 30
0.0
  0
VERTEX
  8
0
 10
102.298754
 20
-90.9447
 30
0.0
  0
VERTEX
  8
0
 10
102.298754
 20
-87.7697
 30
0.0
  0
VERTEX
  8
0
 10
102.298754
 20
-84.5947
 30
0.0
  0
VERTEX
  8
0
 10
101.663754
 20
-83.9597
 30
0.0
  0
VERTEX
  8
0
 10
98.488754
 20
-83.9597
 30
0.0
  0
VERTEX
  8
0
 10
95.313754
 20
-83.9597
 30
0.0
  0
VERTEX
  8
0
 10
94.678754
 20
-84.5947
 30
0.0
  0
VERTEX
  8
0
 10
94.678754
 20
-87.7697
 30
0.0
  0
VERTEX
  8
0
 10
94.678754
 20
-90.9447
 30
0.0
  0
SEQEND
  8
0
  0
POLYLINE
  8
0
 62
0
 70
1
 66
1
 10
0.0
 20
0.0
 30
0.0
  0
VERTEX
  8
0
 10
95.313754
 20
-100.4697
 30
0.0
  0
VERTEX
  8
0
 10
98.488754
 20
-100.4697
 30
0.0
  0
VERTEX
  8
0
 10
101.663754
 20
-100.4697
 30
0.0
  0
VERTEX
  8
0
 10
102.298754
 20
-99.8347
 30
0.0
  0
VERTEX
  8
0
 10
102.298754
 20
-96.6597
 30
0.0
  0
VERTEX
  8
0
 10
102.298754
 20
-93.4847
 30
0.0
  0
VERTEX
  8
0
 10
101.663754
 20
-92.8497
 30
0.0
  0
VERTEX
  8
0
 10
98.488754
 20
-92.8497
 30
0.0
  0
VERTEX
  8
0
 10
95.313754
 20
-92.8497
 30
0.0
  0
VERTEX
  8
0
 10
94.678754
 20
-93.4847
 30
0.0
  0
VERTEX
  8
0
 10
94.678754
 20
-96.6597
 30
0.0
  0
VERTEX
  8
0
 10
94.678754
 20
-99.8347
 30
0.0
  0
SEQEND
  8
0
  0
POLYLINE
  8
0
 62
0
 70
1
 66
1
 10
0.0
 20
0.0
 30
0.0
  0
VERTEX
  8
0
 10
95.313754
 20
-109.3597
 30
0.0
  0
VERTEX
  8
0
 10
98.488754
 20
-109.3597
 30
0.0
  0
VERTEX
  8
0
 10
101.663754
 20
-109.3597
 30
0.0
  0
VERTEX
  8
0
 10
102.298754
 20
-108.7247
 30
0.0
  0
VERTEX
  8
0
 10
102.298754
 20
-105.5497
 30
0.0
  0
VERTEX
  8
0
 10
102.298754
 20
-102.3747
 30
0.0
  0
VERTEX
  8
0
 10
101.663754
 20
-101.7397
 30
0.0
  0
VERTEX
  8
0
 10
98.488754
 20
-101.7397
 30
0.0
  0
VERTEX
  8
0
 10
95.313754
 20
-101.7397
 30
0.0
  0
VERTEX
  8
0
 10
94.678754
 20
-102.3747
 30
0.0
  0
VERTEX
  8
0
 10
94.678754
 20
-105.5497
 30
0.0
  0
VERTEX
  8
0
 10
94.678754
 20
-108.7247
 30
0.0
  0
SEQEND
  8
0
  0
POLYLINE
  8
0
 62
0
 70
1
 66
1
 10
0.0
 20
0.0
 30
0.0
  0
VERTEX
  8
0
 10
104.203754
 20
-47.1297
 30
0.0
  0
VERTEX
  8
0
 10
107.378754
 20
-47.1297
 30
0.0
  0
VERTEX
  8
0
 10
110.553754
 20
-47.1297
 30
0.0
  0
VERTEX
  8
0
 10
111.188754
 20
-46.4947
 30
0.0
  0
VERTEX
  8
0
 10
111.188754
 20
-43.3197
 30
0.0
  0
VERTEX
  8
0
 10
111.188754
 20
-40.1447
 30
0.0
  0
VERTEX
  8
0
 10
110.553754
 20
-39.5097
 30
0.0
  0
VERTEX
  8
0
 10
107.378754
 20
-39.5097
 30
0.0
  0
VERTEX
  8
0
 10
104.203754
 20
-39.5097
 30
0.0
  0
VERTEX
  8
0
 10
103.568754
 20
-40.1447
 30
0.0
  0
VERTEX
  8
0
 10
103.568754
 20
-43.3197
 30
0.0
  0
VERTEX
  8
0
 10
103.568754
 20
-46.4947
 30
0.0
  0
SEQEND
  8
0
  0
POLYLINE
  8
0
 62
0
 70
1
 66
1
 10
0.0
 20
0.0
 30
0.0
  0
VERTEX
  8
0
 10
68.643754
 20
-82.6897
 30
0.0
  0
VERTEX
  8
0
 10
71.818754
 20
-82.6897
 30
0.0
  0
VERTEX
  8
0
 10
74.993754
 20
-82.6897
 30
0.0
  0
VERTEX
  8
0
 10
75.628754
 20
-82.0547
 30
0.0
  0
VERTEX
  8
0
 10
75.628754
 20
-78.8797
 30
0.0
  0
VERTEX
  8
0
 10
75.628754
 20
-75.7047
 30
0.0
  0
VERTEX
  8
0
 10
74.993754
 20
-75.0697
 30
0.0
  0
VERTEX
  8
0
 10
71.818754
 20
-75.0697
 30
0.0
  0
VERTEX
  8
0
 10
68.643754
 20
-75.0697
 30
0.0
  0
VERTEX
  8
0
 10
68.008754
 20
-75.7047
 30
0.0
  0
VERTEX
  8
0
 10
68.008754
 20
-78.8797
 30
0.0
  0
VERTEX
  8
0
 10
68.008754
 20
-82.0547
 30
0.0
  0
SEQEND
  8
0
  0
POLYLINE
  8
0
 62
0
 70
1
 66
1
 10
0.0
 20
0.0
 30
0.0
  0
VERTEX
  8
0
 10
86.423754
 20
-73.7997
 30
0.0
  0
VERTEX
  8
0
 10
89.598754
 20
-73.7997
 30
0.0
  0
VERTEX
  8
0
 10
92.773754
 20
-73.7997
 30
0.0
  0
VERTEX
  8
0
 10
93.408754
 20
-73.1647
 30
0.0
  0
VERTEX
  8
0
 10
93.408754
 20
-69.9897
 30
0.0
  0
VERTEX
  8
0
 10
93.408754
 20
-66.8147
 30
0.0
  0
VERTEX
  8
0
 10
92.773754
 20
-66.1797
 30
0.0
  0
VERTEX
  8
0
 10
89.598754
 20
-66.1797
 30
0.0
  0
VERTEX
  8
0
 10
86.423754
 20
-66.1797
 30
0.0
  0
VERTEX
  8
0
 10
85.788754
 20
-66.8147
 30
0.0
  0
VERTEX
  8
0
 10
85.788754
 20
-69.9897
 30
0.0
  0
VERTEX
  8
0
 10
85.788754
 20
-73.1647
 30
0.0
  0
SEQEND
  8
0
  0
POLYLINE
  8
0
 62
0
 70
1
 66
1
 10
0.0
 20
0.0
 30
0.0
  0
VERTEX
  8
0
 10
68.643754
 20
-109.3597
 30
0.0
  0
VERTEX
  8
0
 10
71.818754
 20
-109.3597
 30
0.0
  0
VERTEX
  8
0
 10
74.993754
 20
-109.3597
 30
0.0
  0
VERTEX
  8
0
 10
75.628754
 20
-108.7247
 30
0.0
  0
VERTEX
  8
0
 10
75.628754
 20
-105.5497
 30
0.0
  0
VERTEX
  8
0
 10
75.628754
 20
-102.3747
 30
0.0
  0
VERTEX
  8
0
 10
74.993754
 20
-101.7397
 30
0.0
  0
VERTEX
  8
0
 10
71.818754
 20
-101.7397
 30
0.0
  0
VERTEX
  8
0
 10
68.643754
 20
-101.7397
 30
0.0
  0
VERTEX
  8
0
 10
68.008754
 20
-102.3747
 30
0.0
  0
VERTEX
  8
0
 10
68.008754
 20
-105.5497
 30
0.0
  0
VERTEX
  8
0
 10
68.008754
 20
-108.7247
 30
0.0
  0
SEQEND
  8
0
  0
POLYLINE
  8
0
 62
0
 70
1
 66
1
 10
0.0
 20
0.0
 30
0.0
  0
VERTEX
  8
0
 10
77.533754
 20
-100.4697
 30
0.0
  0
VERTEX
  8
0
 10
80.708754
 20
-100.4697
 30
0.0
  0
VERTEX
  8
0
 10
83.883754
 20
-100.4697
 30
0.0
  0
VERTEX
  8
0
 10
84.518754
 20
-99.8347
 30
0.0
  0
VERTEX
  8
0
 10
84.518754
 20
-96.6597
 30
0.0
  0
VERTEX
  8
0
 10
84.518754
 20
-93.4847
 30
0.0
  0
VERTEX
  8
0
 10
83.883754
 20
-92.8497
 30
0.0
  0
VERTEX
  8
0
 10
80.708754
 20
-92.8497
 30
0.0
  0
VERTEX
  8
0
 10
77.533754
 20
-92.8497
 30
0.0
  0
VERTEX
  8
0
 10
76.898754
 20
-93.4847
 30
0.0
  0
VERTEX
  8
0
 10
76.898754
 20
-96.6597
 30
0.0
  0
VERTEX
  8
0
 10
76.898754
 20
-99.8347
 30
0.0
  0
SEQEND
  8
0
  0
POLYLINE
  8
0
 62
0
 70
1
 66
1
 10
0.0
 20
0.0
 30
0.0
  0
VERTEX
  8
0
 10
50.863754
 20
-91.5797
 30
0.0
  0
VERTEX
  8
0
 10
54.038754
 20
-91.5797
 30
0.0
  0
VERTEX
  8
0
 10
57.213754
 20
-91.5797
 30
0.0
  0
VERTEX
  8
0
 10
57.848754
 20
-90.9447
 30
0.0
  0
VERTEX
  8
0
 10
57.848754
 20
-87.7697
 30
0.0
  0
VERTEX
  8
0
 10
57.848754
 20
-84.5947
 30
0.0
  0
VERTEX
  8
0
 10
57.213754
 20
-83.9597
 30
0.0
  0
VERTEX
  8
0
 10
54.038754
 20
-83.9597
 30
0.0
  0
VERTEX
  8
0
 10
50.863754
 20
-83.9597
 30
0.0
  0
VERTEX
  8
0
 10
50.228754
 20
-84.5947
 30
0.0
  0
VERTEX
  8
0
 10
50.228754
 20
-87.7697
 30
0.0
  0
VERTEX
  8
0
 10
50.228754
 20
-90.9447
 30
0.0
  0
SEQEND
  8
0
  0
POLYLINE
  8
0
 62
0
 70
1
 66
1
 10
0.0
 20
0.0
 30
0.0
  0
VERTEX
  8
0
 10
50.863754
 20
-100.4697
 30
0.0
  0
VERTEX
  8
0
 10
54.038754
 20
-100.4697
 30
0.0
  0
VERTEX
  8
0
 10
57.213754
 20
-100.4697
 30
0.0
  0
VERTEX
  8
0
 10
57.848754
 20
-99.8347
 30
0.0
  0
VERTEX
  8
0
 10
57.848754
 20
-96.6597
 30
0.0
  0
VERTEX
  8
0
 10
57.848754
 20
-93.4847
 30
0.0
  0
VERTEX
  8
0
 10
57.213754
 20
-92.8497
 30
0.0
  0
VERTEX
  8
0
 10
54.038754
 20
-92.8497
 30
0.0
  0
VERTEX
  8
0
 10
50.863754
 20
-92.8497
 30
0.0
  0
VERTEX
  8
0
 10
50.228754
 20
-93.4847
 30
0.0
  0
VERTEX
  8
0
 10
50.228754
 20
-96.6597
 30
0.0
  0
VERTEX
  8
0
 10
50.228754
 20
-99.8347
 30
0.0
  0
SEQEND
  8
0
  0
POLYLINE
  8
0
 62
0
 70
1
 66
1
 10
0.0
 20
0.0
 30
0.0
  0
VERTEX
  8
0
 10
86.423754
 20
-64.9097
 30
0.0
  0
VERTEX
  8
0
 10
89.598754
 20
-64.9097
 30
0.0
  0
VERTEX
  8
0
 10
92.773754
 20
-64.9097
 30
0.0
  0
VERTEX
  8
0
 10
93.408754
 20
-64.2747
 30
0.0
  0
VERTEX
  8
0
 10
93.408754
 20
-61.0997
 30
0.0
  0
VERTEX
  8
0
 10
93.408754
 20
-57.9247
 30
0.0
  0
VERTEX
  8
0
 10
92.773754
 20
-57.2897
 30
0.0
  0
VERTEX
  8
0
 10
89.598754
 20
-57.2897
 30
0.0
  0
VERTEX
  8
0
 10
86.423754
 20
-57.2897
 30
0.0
  0
VERTEX
  8
0
 10
85.788754
 20
-57.9247
 30
0.0
  0
VERTEX
  8
0
 10
85.788754
 20
-61.0997
 30
0.0
  0
VERTEX
  8
0
 10
85.788754
 20
-64.2747
 30
0.0
  0
SEQEND
  8
0
  0
POLYLINE
  8
0
 62
0
 70
1
 66
1
 10
0.0
 20
0.0
 30
0.0
  0
VERTEX
  8
0
 10
68.643754
 20
-91.5797
 30
0.0
  0
VERTEX
  8
0
 10
71.818754
 20
-91.5797
 30
0.0
  0
VERTEX
  8
0
 10
74.993754
 20
-91.5797
 30
0.0
  0
VERTEX
  8
0
 10
75.628754
 20
-90.9447
 30
0.0
  0
VERTEX
  8
0
 10
75.628754
 20
-87.7697
 30
0.0
  0
VERTEX
  8
0
 10
75.628754
 20
-84.5947
 30
0.0
  0
VERTEX
  8
0
 10
74.993754
 20
-83.9597
 30
0.0
  0
VERTEX
  8
0
 10
71.818754
 20
-83.9597
 30
0.0
  0
VERTEX
  8
0
 10
68.643754
 20
-83.9597
 30
0.0
  0
VERTEX
  8
0
 10
68.008754
 20
-84.5947
 30
0.0
  0
VERTEX
  8
0
 10
68.008754
 20
-87.7697
 30
0.0
  0
VERTEX
  8
0
 10
68.008754
 20
-90.9447
 30
0.0
  0
SEQEND
  8
0
  0
POLYLINE
  8
0
 62
0
 70
1
 66
1
 10
0.0
 20
0.0
 30
0.0
  0
VERTEX
  8
0
 10
68.643754
 20
-64.9097
 30
0.0
  0
VERTEX
  8
0
 10
71.818754
 20
-64.9097
 30
0.0
  0
VERTEX
  8
0
 10
74.993754
 20
-64.9097
 30
0.0
  0
VERTEX
  8
0
 10
75.628754
 20
-64.2747
 30
0.0
  0
VERTEX
  8
0
 10
75.628754
 20
-61.0997
 30
0.0
  0
VERTEX
  8
0
 10
75.628754
 20
-57.9247
 30
0.0
  0
VERTEX
  8
0
 10
74.993754
 20
-57.2897
 30
0.0
  0
VERTEX
  8
0
 10
71.818754
 20
-57.2897
 30
0.0
  0
VERTEX
  8
0
 10
68.643754
 20
-57.2897
 30
0.0
  0
VERTEX
  8
0
 10
68.008754
 20
-57.9247
 30
0.0
  0
VERTEX
  8
0
 10
68.008754
 20
-61.0997
 30
0.0
  0
VERTEX
  8
0
 10
68.008754
 20
-64.2747
 30
0.0
  0
SEQEND
  8
0
  0
POLYLINE
  8
0
 62
0
 70
1
 66
1
 10
0.0
 20
0.0
 30
0.0
  0
VERTEX
  8
0
 10
68.643754
 20
-100.4697
 30
0.0
  0
VERTEX
  8
0
 10
71.818754
 20
-100.4697
 30
0.0
  0
VERTEX
  8
0
 10
74.993754
 20
-100.4697
 30
0.0
  0
VERTEX
  8
0
 10
75.628754
 20
-99.8347
 30
0.0
  0
VERTEX
  8
0
 10
75.628754
 20
-96.6597
 30
0.0
  0
VERTEX
  8
0
 10
75.628754
 20
-93.4847
 30
0.0
  0
VERTEX
  8
0
 10
74.993754
 20
-92.8497
 30
0.0
  0
VERTEX
  8
0
 10
71.818754
 20
-92.8497
 30
0.0
  0
VERTEX
  8
0
 10
68.643754
 20
-92.8497
 30
0.0
  0
VERTEX
  8
0
 10
68.008754
 20
-93.4847
 30
0.0
  0
VERTEX
  8
0
 10
68.008754
 20
-96.6597
 30
0.0
  0
VERTEX
  8
0
 10
68.008754
 20
-99.8347
 30
0.0
  0
SEQEND
  8
0
  0
POLYLINE
  8
0
 62
0
 70
1
 66
1
 10
0.0
 20
0.0
 30
0.0
  0
VERTEX
  8
0
 10
77.533754
 20
-91.5797
 30
0.0
  0
VERTEX
  8
0
 10
80.708754
 20
-91.5797
 30
0.0
  0
VERTEX
  8
0
 10
83.883754
 20
-91.5797
 30
0.0
  0
VERTEX
  8
0
 10
84.518754
 20
-90.9447
 30
0.0
  0
VERTEX
  8
0
 10
84.518754
 20
-87.7697
 30
0.0
  0
VERTEX
  8
0
 10
84.518754
 20
-84.5947
 30
0.0
  0
VERTEX
  8
0
 10
83.883754
 20
-83.9597
 30
0.0
  0
VERTEX
  8
0
 10
80.708754
 20
-83.9597
 30
0.0
  0
VERTEX
  8
0
 10
77.533754
 20
-83.9597
 30
0.0
  0
VERTEX
  8
0
 10
76.898754
 20
-84.5947
 30
0.0
  0
VERTEX
  8
0
 10
76.898754
 20
-87.7697
 30
0.0
  0
VERTEX
  8
0
 10
76.898754
 20
-90.9447
 30
0.0
  0
SEQEND
  8
0
  0
POLYLINE
  8
0
 62
0
 70
1
 66
1
 10
0.0
 20
0.0
 30
0.0
  0
VERTEX
  8
0
 10
68.643754
 20
-73.7997
 30
0.0
  0
VERTEX
  8
0
 10
71.818754
 20
-73.7997
 30
0.0
  0
VERTEX
  8
0
 10
74.993754
 20
-73.7997
 30
0.0
  0
VERTEX
  8
0
 10
75.628754
 20
-73.1647
 30
0.0
  0
VERTEX
  8
0
 10
75.628754
 20
-69.9897
 30
0.0
  0
VERTEX
  8
0
 10
75.628754
 20
-66.8147
 30
0.0
  0
VERTEX
  8
0
 10
74.993754
 20
-66.1797
 30
0.0
  0
VERTEX
  8
0
 10
71.818754
 20
-66.1797
 30
0.0
  0
VERTEX
  8
0
 10
68.643754
 20
-66.1797
 30
0.0
  0
VERTEX
  8
0
 10
68.008754
 20
-66.8147
 30
0.0
  0
VERTEX
  8
0
 10
68.008754
 20
-69.9897
 30
0.0
  0
VERTEX
  8
0
 10
68.008754
 20
-73.1647
 30
0.0
  0
SEQEND
  8
0
  0
POLYLINE
  8
0
 62
0
 70
1
 66
1
 10
0.0
 20
0.0
 30
0.0
  0
VERTEX
  8
0
 10
86.423754
 20
-82.6897
 30
0.0
  0
VERTEX
  8
0
 10
89.598754
 20
-82.6897
 30
0.0
  0
VERTEX
  8
0
 10
92.773754
 20
-82.6897
 30
0.0
  0
VERTEX
  8
0
 10
93.408754
 20
-82.0547
 30
0.0
  0
VERTEX
  8
0
 10
93.408754
 20
-78.8797
 30
0.0
  0
VERTEX
  8
0
 10
93.408754
 20
-75.7047
 30
0.0
  0
VERTEX
  8
0
 10
92.773754
 20
-75.0697
 30
0.0
  0
VERTEX
  8
0
 10
89.598754
 20
-75.0697
 30
0.0
  0
VERTEX
  8
0
 10
86.423754
 20
-75.0697
 30
0.0
  0
VERTEX
  8
0
 10
85.788754
 20
-75.7047
 30
0.0
  0
VERTEX
  8
0
 10
85.788754
 20
-78.8797
 30
0.0
  0
VERTEX
  8
0
 10
85.788754
 20
-82.0547
 30
0.0
  0
SEQEND
  8
0
  0
POLYLINE
  8
0
 62
0
 70
1
 66
1
 10
0.0
 20
0.0
 30
0.0
  0
VERTEX
  8
0
 10
86.423754
 20
-91.5797
 30
0.0
  0
VERTEX
  8
0
 10
89.598754
 20
-91.5797
 30
0.0
  0
VERTEX
  8
0
 10
92.773754
 20
-91.5797
 30
0.0
  0
VERTEX
  8
0
 10
93.408754
 20
-90.9447
 30
0.0
  0
VERTEX
  8
0
 10
93.408754
 20
-87.7697
 30
0.0
  0
VERTEX
  8
0
 10
93.408754
 20
-84.5947
 30
0.0
  0
VERTEX
  8
0
 10
92.773754
 20
-83.9597
 30
0.0
  0
VERTEX
  8
0
 10
89.598754
 20
-83.9597
 30
0.0
  0
VERTEX
  8
0
 10
86.423754
 20
-83.9597
 30
0.0
  0
VERTEX
  8
0
 10
85.788754
 20
-84.5947
 30
0.0
  0
VERTEX
  8
0
 10
85.788754
 20
-87.7697
 30
0.0
  0
VERTEX
  8
0
 10
85.788754
 20
-90.9447
 30
0.0
  0
SEQEND
  8
0
  0
POLYLINE
  8
0
 62
0
 70
1
 66
1
 10
0.0
 20
0.0
 30
0.0
  0
VERTEX
  8
0
 10
86.423754
 20
-100.4697
 30
0.0
  0
VERTEX
  8
0
 10
89.598754
 20
-100.4697
 30
0.0
  0
VERTEX
  8
0
 10
92.773754
 20
-100.4697
 30
0.0
  0
VERTEX
  8
0
 10
93.408754
 20
-99.8347
 30
0.0
  0
VERTEX
  8
0
 10
93.408754
 20
-96.6597
 30
0.0
  0
VERTEX
  8
0
 10
93.408754
 20
-93.4847
 30
0.0
  0
VERTEX
  8
0
 10
92.773754
 20
-92.8497
 30
0.0
  0
VERTEX
  8
0
 10
89.598754
 20
-92.8497
 30
0.0
  0
VERTEX
  8
0
 10
86.423754
 20
-92.8497
 30
0.0
  0
VERTEX
  8
0
 10
85.788754
 20
-93.4847
 30
0.0
  0
VERTEX
  8
0
 10
85.788754
 20
-96.6597
 30
0.0
  0
VERTEX
  8
0
 10
85.788754
 20
-99.8347
 30
0.0
  0
SEQEND
  8
0
  0
POLYLINE
  8
0
 62
0
 70
1
 66
1
 10
0.0
 20
0.0
 30
0.0
  0
VERTEX
  8
0
 10
86.423754
 20
-109.3597
 30
0.0
  0
VERTEX
  8
0
 10
89.598754
 20
-109.3597
 30
0.0
  0
VERTEX
  8
0
 10
92.773754
 20
-109.3597
 30
0.0
  0
VERTEX
  8
0
 10
93.408754
 20
-108.7247
 30
0.0
  0
VERTEX
  8
0
 10
93.408754
 20
-105.5497
 30
0.0
  0
VERTEX
  8
0
 10
93.408754
 20
-102.3747
 30
0.0
  0
VERTEX
  8
0
 10
92.773754
 20
-101.7397
 30
0.0
  0
VERTEX
  8
0
 10
89.598754
 20
-101.7397
 30
0.0
  0
VERTEX
  8
0
 10
86.423754
 20
-101.7397
 30
0.0
  0
VERTEX
  8
0
 10
85.788754
 20
-102.3747
 30
0.0
  0
VERTEX
  8
0
 10
85.788754
 20
-105.5497
 30
0.0
  0
VERTEX
  8
0
 10
85.788754
 20
-108.7247
 30
0.0
  0
SEQEND
  8
0
  0
POLYLINE
  8
0
 62
0
 70
1
 66
1
 10
0.0
 20
0.0
 30
0.0
  0
VERTEX
  8
0
 10
95.313754
 20
-47.1297
 30
0.0
  0
VERTEX
  8
0
 10
98.488754
 20
-47.1297
 30
0.0
  0
VERTEX
  8
0
 10
101.663754
 20
-47.1297
 30
0.0
  0
VERTEX
  8
0
 10
102.298754
 20
-46.4947
 30
0.0
  0
VERTEX
  8
0
 10
102.298754
 20
-43.3197
 30
0.0
  0
VERTEX
  8
0
 10
102.298754
 20
-40.1447
 30
0.0
  0
VERTEX
  8
0
 10
101.663754
 20
-39.5097
 30
0.0
  0
VERTEX
  8
0
 10
98.488754
 20
-39.5097
 30
0.0
  0
VERTEX
  8
0
 10
95.313754
 20
-39.5097
 30
0.0
  0
VERTEX
  8
0
 10
94.678754
 20
-40.1447
 30
0.0
  0
VERTEX
  8
0
 10
94.678754
 20
-43.3197
 30
0.0
  0
VERTEX
  8
0
 10
94.678754
 20
-46.4947
 30
0.0
  0
SEQEND
  8
0
  0
POLYLINE
  8
0
 62
0
 70
1
 66
1
 10
0.0
 20
0.0
 30
0.0
  0
VERTEX
  8
0
 10
95.313754
 20
-56.0197
 30
0.0
  0
VERTEX
  8
0
 10
98.488754
 20
-56.0197
 30
0.0
  0
VERTEX
  8
0
 10
101.663754
 20
-56.0197
 30
0.0
  0
VERTEX
  8
0
 10
102.298754
 20
-55.3847
 30
0.0
  0
VERTEX
  8
0
 10
102.298754
 20
-52.2097
 30
0.0
  0
VERTEX
  8
0
 10
102.298754
 20
-49.0347
 30
0.0
  0
VERTEX
  8
0
 10
101.663754
 20
-48.3997
 30
0.0
  0
VERTEX
  8
0
 10
98.488754
 20
-48.3997
 30
0.0
  0
VERTEX
  8
0
 10
95.313754
 20
-48.3997
 30
0.0
  0
VERTEX
  8
0
 10
94.678754
 20
-49.0347
 30
0.0
  0
VERTEX
  8
0
 10
94.678754
 20
-52.2097
 30
0.0
  0
VERTEX
  8
0
 10
94.678754
 20
-55.3847
 30
0.0
  0
SEQEND
  8
0
  0
POLYLINE
  8
0
 62
0
 70
1
 66
1
 10
0.0
 20
0.0
 30
0.0
  0
VERTEX
  8
0
 10
95.313754
 20
-64.9097
 30
0.0
  0
VERTEX
  8
0
 10
98.488754
 20
-64.9097
 30
0.0
  0
VERTEX
  8
0
 10
101.663754
 20
-64.9097
 30
0.0
  0
VERTEX
  8
0
 10
102.298754
 20
-64.2747
 30
0.0
  0
VERTEX
  8
0
 10
102.298754
 20
-61.0997
 30
0.0
  0
VERTEX
  8
0
 10
102.298754
 20
-57.9247
 30
0.0
  0
VERTEX
  8
0
 10
101.663754
 20
-57.2897
 30
0.0
  0
VERTEX
  8
0
 10
98.488754
 20
-57.2897
 30
0.0
  0
VERTEX
  8
0
 10
95.313754
 20
-57.2897
 30
0.0
  0
VERTEX
  8
0
 10
94.678754
 20
-57.9247
 30
0.0
  0
VERTEX
  8
0
 10
94.678754
 20
-61.0997
 30
0.0
  0
VERTEX
  8
0
 10
94.678754
 20
-64.2747
 30
0.0
  0
SEQEND
  8
0
  0
POLYLINE
  8
0
 62
0
 70
1
 66
1
 10
0.0
 20
0.0
 30
0.0
  0
VERTEX
  8
0
 10
95.313754
 20
-73.7997
 30
0.0
  0
VERTEX
  8
0
 10
98.488754
 20
-73.7997
 30
0.0
  0
VERTEX
  8
0
 10
101.663754
 20
-73.7997
 30
0.0
  0
VERTEX
  8
0
 10
102.298754
 20
-73.1647
 30
0.0
  0
VERTEX
  8
0
 10
102.298754
 20
-69.9897
 30
0.0
  0
VERTEX
  8
0
 10
102.298754
 20
-66.8147
 30
0.0
  0
VERTEX
  8
0
 10
101.663754
 20
-66.1797
 30
0.0
  0
VERTEX
  8
0
 10
98.488754
 20
-66.1797
 30
0.0
  0
VERTEX
  8
0
 10
95.313754
 20
-66.1797
 30
0.0
  0
VERTEX
  8
0
 10
94.678754
 20
-66.8147
 30
0.0
  0
VERTEX
  8
0
 10
94.678754
 20
-69.9897
 30
0.0
  0
VERTEX
  8
0
 10
94.678754
 20
-73.1647
 30
0.0
  0
SEQEND
  8
0
  0
POLYLINE
  8
0
 62
0
 70
1
 66
1
 10
0.0
 20
0.0
 30
0.0
  0
VERTEX
  8
0
 10
95.313754
 20
-82.6897
 30
0.0
  0
VERTEX
  8
0
 10
98.488754
 20
-82.6897
 30
0.0
  0
VERTEX
  8
0
 10
101.663754
 20
-82.6897
 30
0.0
  0
VERTEX
  8
0
 10
102.298754
 20
-82.0547
 30
0.0
  0
VERTEX
  8
0
 10
102.298754
 20
-78.8797
 30
0.0
  0
VERTEX
  8
0
 10
102.298754
 20
-75.7047
 30
0.0
  0
VERTEX
  8
0
 10
101.663754
 20
-75.0697
 30
0.0
  0
VERTEX
  8
0
 10
98.488754
 20
-75.0697
 30
0.0
  0
VERTEX
  8
0
 10
95.313754
 20
-75.0697
 30
0.0
  0
VERTEX
  8
0
 10
94.678754
 20
-75.7047
 30
0.0
  0
VERTEX
  8
0
 10
94.678754
 20
-78.8797
 30
0.0
  0
VERTEX
  8
0
 10
94.678754
 20
-82.0547
 30
0.0
  0
SEQEND
  8
0
  0
POLYLINE
  8
0
 62
0
 70
1
 66
1
 10
0.0
 20
0.0
 30
0.0
  0
VERTEX
  8
0
 10
104.203754
 20
-73.7997
 30
0.0
  0
VERTEX
  8
0
 10
107.378754
 20
-73.7997
 30
0.0
  0
VERTEX
  8
0
 10
110.553754
 20
-73.7997
 30
0.0
  0
VERTEX
  8
0
 10
111.188754
 20
-73.1647
 30
0.0
  0
VERTEX
  8
0
 10
111.188754
 20
-69.9897
 30
0.0
  0
VERTEX
  8
0
 10
111.188754
 20
-66.8147
 30
0.0
  0
VERTEX
  8
0
 10
110.553754
 20
-66.1797
 30
0.0
  0
VERTEX
  8
0
 10
107.378754
 20
-66.1797
 30
0.0
  0
VERTEX
  8
0
 10
104.203754
 20
-66.1797
 30
0.0
  0
VERTEX
  8
0
 10
103.568754
 20
-66.8147
 30
0.0
  0
VERTEX
  8
0
 10
103.568754
 20
-69.9897
 30
0.0
  0
VERTEX
  8
0
 10
103.568754
 20
-73.1647
 30
0.0
  0
SEQEND
  8
0
  0
POLYLINE
  8
0
 62
0
 70
1
 66
1
 10
0.0
 20
0.0
 30
0.0
  0
VERTEX
  8
0
 10
104.203754
 20
-82.6897
 30
0.0
  0
VERTEX
  8
0
 10
107.378754
 20
-82.6897
 30
0.0
  0
VERTEX
  8
0
 10
110.553754
 20
-82.6897
 30
0.0
  0
VERTEX
  8
0
 10
111.188754
 20
-82.0547
 30
0.0
  0
VERTEX
  8
0
 10
111.188754
 20
-78.8797
 30
0.0
  0
VERTEX
  8
0
 10
111.188754
 20
-75.7047
 30
0.0
  0
VERTEX
  8
0
 10
110.553754
 20
-75.0697
 30
0.0
  0
VERTEX
  8
0
 10
107.378754
 20
-75.0697
 30
0.0
  0
VERTEX
  8
0
 10
104.203754
 20
-75.0697
 30
0.0
  0
VERTEX
  8
0
 10
103.568754
 20
-75.7047
 30
0.0
  0
VERTEX
  8
0
 10
103.568754
 20
-78.8797
 30
0.0
  0
VERTEX
  8
0
 10
103.568754
 20
-82.0547
 30
0.0
  0
SEQEND
  8
0
  0
POLYLINE
  8
0
 62
0
 70
1
 66
1
 10
0.0
 20
0.0
 30
0.0
  0
VERTEX
  8
0
 10
104.203754
 20
-91.5797
 30
0.0
  0
VERTEX
  8
0
 10
107.378754
 20
-91.5797
 30
0.0
  0
VERTEX
  8
0
 10
110.553754
 20
-91.5797
 30
0.0
  0
VERTEX
  8
0
 10
111.188754
 20
-90.9447
 30
0.0
  0
VERTEX
  8
0
 10
111.188754
 20
-87.7697
 30
0.0
  0
VERTEX
  8
0
 10
111.188754
 20
-84.5947
 30
0.0
  0
VERTEX
  8
0
 10
110.553754
 20
-83.9597
 30
0.0
  0
VERTEX
  8
0
 10
107.378754
 20
-83.9597
 30
0.0
  0
VERTEX
  8
0
 10
104.203754
 20
-83.9597
 30
0.0
  0
VERTEX
  8
0
 10
103.568754
 20
-84.5947
 30
0.0
  0
VERTEX
  8
0
 10
103.568754
 20
-87.7697
 30
0.0
  0
VERTEX
  8
0
 10
103.568754
 20
-90.9447
 30
0.0
  0
SEQEND
  8
0
  0
POLYLINE
  8
0
 62
0
 70
1
 66
1
 10
0.0
 20
0.0
 30
0.0
  0
VERTEX
  8
0
 10
104.203754
 20
-100.4697
 30
0.0
  0
VERTEX
  8
0
 10
107.378754
 20
-100.4697
 30
0.0
  0
VERTEX
  8
0
 10
110.553754
 20
-100.4697
 30
0.0
  0
VERTEX
  8
0
 10
111.188754
 20
-99.8347
 30
0.0
  0
VERTEX
  8
0
 10
111.188754
 20
-96.6597
 30
0.0
  0
VERTEX
  8
0
 10
111.188754
 20
-93.4847
 30
0.0
  0
VERTEX
  8
0
 10
110.553754
 20
-92.8497
 30
0.0
  0
VERTEX
  8
0
 10
107.378754
 20
-92.8497
 30
0.0
  0
VERTEX
  8
0
 10
104.203754
 20
-92.8497
 30
0.0
  0
VERTEX
  8
0
 10
103.568754
 20
-93.4847
 30
0.0
  0
VERTEX
  8
0
 10
103.568754
 20
-96.6597
 30
0.0
  0
VERTEX
  8
0
 10
103.568754
 20
-99.8347
 30
0.0
  0
SEQEND
  8
0
  0
POLYLINE
  8
0
 62
0
 70
1
 66
1
 10
0.0
 20
0.0
 30
0.0
  0
VERTEX
  8
0
 10
104.203754
 20
-109.3597
 30
0.0
  0
VERTEX
  8
0
 10
107.378754
 20
-109.3597
 30
0.0
  0
VERTEX
  8
0
 10
110.553754
 20
-109.3597
 30
0.0
  0
VERTEX
  8
0
 10
111.188754
 20
-108.7247
 30
0.0
  0
VERTEX
  8
0
 10
111.188754
 20
-105.5497
 30
0.0
  0
VERTEX
  8
0
 10
111.188754
 20
-102.3747
 30
0.0
  0
VERTEX
  8
0
 10
110.553754
 20
-101.7397
 30
0.0
  0
VERTEX
  8
0
 10
107.378754
 20
-101.7397
 30
0.0
  0
VERTEX
  8
0
 10
104.203754
 20
-101.7397
 30
0.0
  0
VERTEX
  8
0
 10
103.568754
 20
-102.3747
 30
0.0
  0
VERTEX
  8
0
 10
103.568754
 20
-105.5497
 30
0.0
  0
VERTEX
  8
0
 10
103.568754
 20
-108.7247
 30
0.0
  0
SEQEND
  8
0
  0
POLYLINE
  8
0
 62
0
 70
1
 66
1
 10
0.0
 20
0.0
 30
0.0
  0
VERTEX
  8
0
 10
39.433754
 20
-37.6047
 30
0.0
  0
VERTEX
  8
0
 10
44.3444206667
 20
-37.6047
 30
0.0
  0
VERTEX
  8
0
 10
49.2550873333
 20
-37.6047
 30
0.0
  0
VERTEX
  8
0
 10
54.165754
 20
-37.6047
 30
0.0
  0
VERTEX
  8
0
 10
59.0764206667
 20
-37.6047
 30
0.0
  0
VERTEX
  8
0
 10
63.9870873333
 20
-37.6047
 30
0.0
  0
VERTEX
  8
0
 10
68.897754
 20
-37.6047
 30
0.0
  0
VERTEX
  8
0
 10
73.8084206667
 20
-37.6047
 30
0.0
  0
VERTEX
  8
0
 10
78.7190873333
 20
-37.6047
 30
0.0
  0
VERTEX
  8
0
 10
83.629754
 20
-37.6047
 30
0.0
  0
VERTEX
  8
0
 10
88.5404206667
 20
-37.6047
 30
0.0
  0
VERTEX
  8
0
 10
93.4510873333
 20
-37.6047
 30
0.0
  0
VERTEX
  8
0
 10
98.361754
 20
-37.6047
 30
0.0
  0
VERTEX
  8
0
 10
103.272420667
 20
-37.6047
 30
0.0
  0
VERTEX
  8
0
 10
108.183087333
 20
-37.6047
 30
0.0
  0
VERTEX
  8
0
 10
113.093754
 20
-37.6047
 30
0.0
  0
VERTEX
  8
0
 10
113.093754
 20
-42.5153666667
 30
0.0
  0
VERTEX
  8
0
 10
113.093754
 20
-47.4260333333
 30
0.0
  0
VERTEX
  8
0
 10
113.093754
 20
-52.3367
 30
0.0
  0
VERTEX
  8
0
 10
113.093754
 20
-57.2473666667
 30
0.0
  0
VERTEX
  8
0
 10
113.093754
 20
-62.1580333333
 30
0.0
  0
VERTEX
  8
0
 10
113.093754
 20
-67.0687
 30
0.0
  0
VERTEX
  8
0
 10
113.093754
 20
-71.9793666667
 30
0.0
  0
VERTEX
  8
0
 10
113.093754
 20
-76.8900333333
 30
0.0
  0
VERTEX
  8
0
 10
113.093754
 20
-81.8007
 30
0.0
  0
VERTEX
  8
0
 10
113.093754
 20
-86.7113666667
 30
0.0
  0
VERTEX
  8
0
 10
113.093754
 20
-91.6220333333
 30
0.0
  0
VERTEX
  8
0
 10
113.093754
 20
-96.5327
 30
0.0
  0
VERTEX
  8
0
 10
113.093754
 20
-101.443366667
 30
0.0
  0
VERTEX
  8
0
 10
113.093754
 20
-106.354033333
 30
0.0
  0
VERTEX
  8
0
 10
113.093754
 20
-111.2647
 30
0.0
  0
VERTEX
  8
0
 10
108.183087333
 20
-111.2647
 30
0.0
  0
VERTEX
  8
0
 10
103.272420667
 20
-111.2647
 30
0.0
  0
VERTEX
  8
0
 10
98.361754
 20
-111.2647
 30
0.0
  0
VERTEX
  8
0
 10
93.4510873333
 20
-111.2647
 30
0.0
  0
VERTEX
  8
0
 10
88.5404206667
 20
-111.2647
 30
0.0
  0
VERTEX
  8
0
 10
83.629754
 20
-111.2647
 30
0.0
  0
VERTEX
  8
0
 10
78.7190873333
 20
-111.2647
 30
0.0
  0
VERTEX
  8
0
 10
73.8084206667
 20
-111.2647
 30
0.0
  0
VERTEX
  8
0
 10
68.897754
 20
-111.2647
 30
0.0
  0
VERTEX
  8
0
 10
63.9870873333
 20
-111.2647
 30
0.0
  0
VERTEX
  8
0
 10
59.0764206667
 20
-111.2647
 30
0.0
  0
VERTEX
  8
0
 10
54.165754
 20
-111.2647
 30
0.0
  0
VERTEX
  8
0
 10
49.2550873333
 20
-111.2647
 30
0.0
  0
VERTEX
  8
0
 10
44.3444206667
 20
-111.2647
 30
0.0
  0
VERTEX
  8
0
 10
39.433754
 20
-111.2647
 30
0.0
  0
VERTEX
  8
0
 10
39.433754
 20
-106.354033333
 30
0.0
  0
VERTEX
  8
0
 10
39.433754
 20
-101.443366667
 30
0.0
  0
VERTEX
  8
0
 10
39.433754
 20
-96.5327
 30
0.0
  0
VERTEX
  8
0
 10
39.433754
 20
-91.6220333333
 30
0.0
  0
VERTEX
  8
0
 10
39.433754
 20
-86.7113666667
 30
0.0
  0
VERTEX
  8
0
 10
39.433754
 20
-81.8007
 30
0.0
  0
VERTEX
  8
0
 10
39.433754
 20
-76.8900333333
 30
0.0
  0
VERTEX
  8
0
 10
39.433754
 20
-71.9793666667
 30
0.0
  0
VERTEX
  8
0
 10
39.433754
 20
-67.0687
 30
0.0
  0
VERTEX
  8
0
 10
39.433754
 20
-62.1580333333
 30
0.0
  0
VERTEX
  8
0
 10
39.433754
 20
-57.2473666667
 30
0.0
  0
VERTEX
  8
0
 10
39.433754
 20
-52.3367
 30
0.0
  0
VERTEX
  8
0
 10
39.433754
 20
-47.4260333333
 30
0.0
  0
VERTEX
  8
0
 10
39.433754
 20
-42.5153666667
 30
0.0
  0
SEQEND
  8
0
  0
POLYLINE
  8
0
 62
0
 70
1
 66
1
 10
0.0
 20
0.0
 30
0.0
  0
VERTEX
  8
0
 10
41.973754
 20
-82.6897
 30
0.0
  0
VERTEX
  8
0
 10
45.148754
 20
-82.6897
 30
0.0
  0
VERTEX
  8
0
 10
48.323754
 20
-82.6897
 30
0.0
  0
VERTEX
  8
0
 10
48.958754
 20
-82.0547
 30
0.0
  0
VERTEX
  8
0
 10
48.958754
 20
-78.8797
 30
0.0
  0
VERTEX
  8
0
 10
48.958754
 20
-75.7047
 30
0.0
  0
VERTEX
  8
0
 10
48.323754
 20
-75.0697
 30
0.0
  0
VERTEX
  8
0
 10
45.148754
 20
-75.0697
 30
0.0
  0
VERTEX
  8
0
 10
41.973754
 20
-75.0697
 30
0.0
  0
VERTEX
  8
0
 10
41.338754
 20
-75.7047
 30
0.0
  0
VERTEX
  8
0
 10
41.338754
 20
-78.8797
 30
0.0
  0
VERTEX
  8
0
 10
41.338754
 20
-82.0547
 30
0.0
  0
SEQEND
  8
0
  0
POLYLINE
  8
0
 62
0
 70
1
 66
1
 10
0.0
 20
0.0
 30
0.0
  0
VERTEX
  8
0
 10
50.863754
 20
-109.3597
 30
0.0
  0
VERTEX
  8
0
 10
54.038754
 20
-109.3597
 30
0.0
  0
VERTEX
  8
0
 10
57.213754
 20
-109.3597
 30
0.0
  0
VERTEX
  8
0
 10
57.848754
 20
-108.7247
 30
0.0
  0
VERTEX
  8
0
 10
57.848754
 20
-105.5497
 30
0.0
  0
VERTEX
  8
0
 10
57.848754
 20
-102.3747
 30
0.0
  0
VERTEX
  8
0
 10
57.213754
 20
-101.7397
 30
0.0
  0
VERTEX
  8
0
 10
54.038754
 20
-101.7397
 30
0.0
  0
VERTEX
  8
0
 10
50.863754
 20
-101.7397
 30
0.0
  0
VERTEX
  8
0
 10
50.228754
 20
-102.3747
 30
0.0
  0
VERTEX
  8
0
 10
50.228754
 20
-105.5497
 30
0.0
  0
VERTEX
  8
0
 10
50.228754
 20
-108.7247
 30
0.0
  0
SEQEND
  8
0
  0
POLYLINE
  8
0
 62
0
 70
1
 66
1
 10
0.0
 20
0.0
 30
0.0
  0
VERTEX
  8
0
 10
59.753754
 20
-47.1297
 30
0.0
  0
VERTEX
  8
0
 10
62.928754
 20
-47.1297
 30
0.0
  0
VERTEX
  8
0
 10
66.103754
 20
-47.1297
 30
0.0
  0
VERTEX
  8
0
 10
66.738754
 20
-46.4947
 30
0.0
  0
VERTEX
  8
0
 10
66.738754
 20
-43.3197
 30
0.0
  0
VERTEX
  8
0
 10
66.738754
 20
-40.1447
 30
0.0
  0
VERTEX
  8
0
 10
66.103754
 20
-39.5097
 30
0.0
  0
VERTEX
  8
0
 10
62.928754
 20
-39.5097
 30
0.0
  0
VERTEX
  8
0
 10
59.753754
 20
-39.5097
 30
0.0
  0
VERTEX
  8
0
 10
59.118754
 20
-40.1447
 30
0.0
  0
VERTEX
  8
0
 10
59.118754
 20
-43.3197
 30
0.0
  0
VERTEX
  8
0
 10
59.118754
 20
-46.4947
 30
0.0
  0
SEQEND
  8
0
  0
POLYLINE
  8
0
 62
0
 70
1
 66
1
 10
0.0
 20
0.0
 30
0.0
  0
VERTEX
  8
0
 10
59.753754
 20
-56.0197
 30
0.0
  0
VERTEX
  8
0
 10
62.928754
 20
-56.0197
 30
0.0
  0
VERTEX
  8
0
 10
66.103754
 20
-56.0197
 30
0.0
  0
VERTEX
  8
0
 10
66.738754
 20
-55.3847
 30
0.0
  0
VERTEX
  8
0
 10
66.738754
 20
-52.2097
 30
0.0
  0
VERTEX
  8
0
 10
66.738754
 20
-49.0347
 30
0.0
  0
VERTEX
  8
0
 10
66.103754
 20
-48.3997
 30
0.0
  0
VERTEX
  8
0
 10
62.928754
 20
-48.3997
 30
0.0
  0
VERTEX
  8
0
 10
59.753754
 20
-48.3997
 30
0.0
  0
VERTEX
  8
0
 10
59.118754
 20
-49.0347
 30
0.0
  0
VERTEX
  8
0
 10
59.118754
 20
-52.2097
 30
0.0
  0
VERTEX
  8
0
 10
59.118754
 20
-55.3847
 30
0.0
  0
SEQEND
  8
0
  0
POLYLINE
  8
0
 62
0
 70
1
 66
1
 10
0.0
 20
0.0
 30
0.0
  0
VERTEX
  8
0
 10
59.753754
 20
-64.9097
 30
0.0
  0
VERTEX
  8
0
 10
62.928754
 20
-64.9097
 30
0.0
  0
VERTEX
  8
0
 10
66.103754
 20
-64.9097
 30
0.0
  0
VERTEX
  8
0
 10
66.738754
 20
-64.2747
 30
0.0
  0
VERTEX
  8
0
 10
66.738754
 20
-61.0997
 30
0.0
  0
VERTEX
  8
0
 10
66.738754
 20
-57.9247
 30
0.0
  0
VERTEX
  8
0
 10
66.103754
 20
-57.2897
 30
0.0
  0
VERTEX
  8
0
 10
62.928754
 20
-57.2897
 30
0.0
  0
VERTEX
  8
0
 10
59.753754
 20
-57.2897
 30
0.0
  0
VERTEX
  8
0
 10
59.118754
 20
-57.9247
 30
0.0
  0
VERTEX
  8
0
 10
59.118754
 20
-61.0997
 30
0.0
  0
VERTEX
  8
0
 10
59.118754
 20
-64.2747
 30
0.0
  0
SEQEND
  8
0
  0
POLYLINE
  8
0
 62
0
 70
1
 66
1
 10
0.0
 20
0.0
 30
0.0
  0
VERTEX
  8
0
 10
59.753754
 20
-73.7997
 30
0.0
  0
VERTEX
  8
0
 10
62.928754
 20
-73.7997
 30
0.0
  0
VERTEX
  8
0
 10
66.103754
 20
-73.7997
 30
0.0
  0
VERTEX
  8
0
 10
66.738754
 20
-73.1647
 30
0.0
  0
VERTEX
  8
0
 10
66.738754
 20
-69.9897
 30
0.0
  0
VERTEX
  8
0
 10
66.738754
 20
-66.8147
 30
0.0
  0
VERTEX
  8
0
 10
66.103754
 20
-66.1797
 30
0.0
  0
VERTEX
  8
0
 10
62.928754
 20
-66.1797
 30
0.0
  0
VERTEX
  8
0
 10
59.753754
 20
-66.1797
 30
0.0
  0
VERTEX
  8
0
 10
59.118754
 20
-66.8147
 30
0.0
  0
VERTEX
  8
0
 10
59.118754
 20
-69.9897
 30
0.0
  0
VERTEX
  8
0
 10
59.118754
 20
-73.1647
 30
0.0
  0
SEQEND
  8
0
  0
POLYLINE
  8
0
 62
0
 70
1
 66
1
 10
0.0
 20
0.0
 30
0.0
  0
VERTEX
  8
0
 10
59.753754
 20
-82.6897
 30
0.0
  0
VERTEX
  8
0
 10
62.928754
 20
-82.6897
 30
0.0
  0
VERTEX
  8
0
 10
66.103754
 20
-82.6897
 30
0.0
  0
VERTEX
  8
0
 10
66.738754
 20
-82.0547
 30
0.0
  0
VERTEX
  8
0
 10
66.738754
 20
-78.8797
 30
0.0
  0
VERTEX
  8
0
 10
66.738754
 20
-75.7047
 30
0.0
  0
VERTEX
  8
0
 10
66.103754
 20
-75.0697
 30
0.0
  0
VERTEX
  8
0
 10
62.928754
 20
-75.0697
 30
0.0
  0
VERTEX
  8
0
 10
59.753754
 20
-75.0697
 30
0.0
  0
VERTEX
  8
0
 10
59.118754
 20
-75.7047
 30
0.0
  0
VERTEX
  8
0
 10
59.118754
 20
-78.8797
 30
0.0
  0
VERTEX
  8
0
 10
59.118754
 20
-82.0547
 30
0.0
  0
SEQEND
  8
0
  0
POLYLINE
  8
0
 62
0
 70
1
 66
1
 10
0.0
 20
0.0
 30
0.0
  0
VERTEX
  8
0
 10
59.753754
 20
-91.5797
 30
0.0
  0
VERTEX
  8
0
 10
62.928754
 20
-91.5797
 30
0.0
  0
VERTEX
  8
0
 10
66.103754
 20
-91.5797
 30
0.0
  0
VERTEX
  8
0
 10
66.738754
 20
-90.9447
 30
0.0
  0
VERTEX
  8
0
 10
66.738754
 20
-87.7697
 30
0.0
  0
VERTEX
  8
0
 10
66.738754
 20
-84.5947
 30
0.0
  0
VERTEX
  8
0
 10
66.103754
 20
-83.9597
 30
0.0
  0
VERTEX
  8
0
 10
62.928754
 20
-83.9597
 30
0.0
  0
VERTEX
  8
0
 10
59.753754
 20
-83.9597
 30
0.0
  0
VERTEX
  8
0
 10
59.118754
 20
-84.5947
 30
0.0
  0
VERTEX
  8
0
 10
59.118754
 20
-87.7697
 30
0.0
  0
VERTEX
  8
0
 10
59.118754
 20
-90.9447
 30
0.0
  0
SEQEND
  8
0
  0
POLYLINE
  8
0
 62
0
 70
1
 66
1
 10
0.0
 20
0.0
 30
0.0
  0
VERTEX
  8
0
 10
77.533754
 20
-109.3597
 30
0.0
  0
VERTEX
  8
0
 10
80.708754
 20
-109.3597
 30
0.0
  0
VERTEX
  8
0
 10
83.883754
 20
-109.3597
 30
0.0
  0
VERTEX
  8
0
 10
84.518754
 20
-108.7247
 30
0.0
  0
VERTEX
  8
0
 10
84.518754
 20
-105.5497
 30
0.0
  0
VERTEX
  8
0
 10
84.518754
 20
-102.3747
 30
0.0
  0
VERTEX
  8
0
 10
83.883754
 20
-101.7397
 30
0.0
  0
VERTEX
  8
0
 10
80.708754
 20
-101.7397
 30
0.0
  0
VERTEX
  8
0
 10
77.533754
 20
-101.7397
 30
0.0
  0
VERTEX
  8
0
 10
76.898754
 20
-102.3747
 30
0.0
  0
VERTEX
  8
0
 10
76.898754
 20
-105.5497
 30
0.0
  0
VERTEX
  8
0
 10
76.898754
 20
-108.7247
 30
0.0
  0
SEQEND
  8
0
  0
POLYLINE
  8
0
 62
0
 70
1
 66
1
 10
0.0
 20
0.0
 30
0.0
  0
VERTEX
  8
0
 10
86.423754
 20
-47.1297
 30
0.0
  0
VERTEX
  8
0
 10
89.598754
 20
-47.1297
 30
0.0
  0
VERTEX
  8
0
 10
92.773754
 20
-47.1297
 30
0.0
  0
VERTEX
  8
0
 10
93.408754
 20
-46.4947
 30
0.0
  0
VERTEX
  8
0
 10
93.408754
 20
-43.3197
 30
0.0
  0
VERTEX
  8
0
 10
93.408754
 20
-40.1447
 30
0.0
  0
VERTEX
  8
0
 10
92.773754
 20
-39.5097
 30
0.0
  0
VERTEX
  8
0
 10
89.598754
 20
-39.5097
 30
0.0
  0
VERTEX
  8
0
 10
86.423754
 20
-39.5097
 30
0.0
  0
VERTEX
  8
0
 10
85.788754
 20
-40.1447
 30
0.0
  0
VERTEX
  8
0
 10
85.788754
 20
-43.3197
 30
0.0
  0
VERTEX
  8
0
 10
85.788754
 20
-46.4947
 30
0.0
  0
SEQEND
  8
0
  0
POLYLINE
  8
0
 62
0
 70
1
 66
1
 10
0.0
 20
0.0
 30
0.0
  0
VERTEX
  8
0
 10
59.753754
 20
-100.4697
 30
0.0
  0
VERTEX
  8
0
 10
62.928754
 20
-100.4697
 30
0.0
  0
VERTEX
  8
0
 10
66.103754
 20
-100.4697
 30
0.0
  0
VERTEX
  8
0
 10
66.738754
 20
-99.8347
 30
0.0
  0
VERTEX
  8
0
 10
66.738754
 20
-96.6597
 30
0.0
  0
VERTEX
  8
0
 10
66.738754
 20
-93.4847
 30
0.0
  0
VERTEX
  8
0
 10
66.103754
 20
-92.8497
 30
0.0
  0
VERTEX
  8
0
 10
62.928754
 20
-92.8497
 30
0.0
  0
VERTEX
  8
0
 10
59.753754
 20
-92.8497
 30
0.0
  0
VERTEX
  8
0
 10
59.118754
 20
-93.4847
 30
0.0
  0
VERTEX
  8
0
 10
59.118754
 20
-96.6597
 30
0.0
  0
VERTEX
  8
0
 10
59.118754
 20
-99.8347
 30
0.0
  0
SEQEND
  8
0
  0
POLYLINE
  8
0
 62
0
 70
1
 66
1
 10
0.0
 20
0.0
 30
0.0
  0
VERTEX
  8
0
 10
59.753754
 20
-109.3597
 30
0.0
  0
VERTEX
  8
0
 10
62.928754
 20
-109.3597
 30
0.0
  0
VERTEX
  8
0
 10
66.103754
 20
-109.3597
 30
0.0
  0
VERTEX
  8
0
 10
66.738754
 20
-108.7247
 30
0.0
  0
VERTEX
  8
0
 10
66.738754
 20
-105.5497
 30
0.0
  0
VERTEX
  8
0
 10
66.738754
 20
-102.3747
 30
0.0
  0
VERTEX
  8
0
 10
66.103754
 20
-101.7397
 30
0.0
  0
VERTEX
  8
0
 10
62.928754
 20
-101.7397
 30
0.0
  0
VERTEX
  8
0
 10
59.753754
 20
-101.7397
 30
0.0
  0
VERTEX
  8
0
 10
59.118754
 20
-102.3747
 30
0.0
  0
VERTEX
  8
0
 10
59.118754
 20
-105.5497
 30
0.0
  0
VERTEX
  8
0
 10
59.118754
 20
-108.7247
 30
0.0
  0
SEQEND
  8
0
  0
POLYLINE
  8
0
 62
0
 70
1
 66
1
 10
0.0
 20
0.0
 30
0.0
  0
VERTEX
  8
0
 10
68.643754
 20
-47.1297
 30
0.0
  0
VERTEX
  8
0
 10
71.818754
 20
-47.1297
 30
0.0
  0
VERTEX
  8
0
 10
74.993754
 20
-47.1297
 30
0.0
  0
VERTEX
  8
0
 10
75.628754
 20
-46.4947
 30
0.0
  0
VERTEX
  8
0
 10
75.628754
 20
-43.3197
 30
0.0
  0
VERTEX
  8
0
 10
75.628754
 20
-40.1447
 30
0.0
  0
VERTEX
  8
0
 10
74.993754
 20
-39.5097
 30
0.0
  0
VERTEX
  8
0
 10
71.818754
 20
-39.5097
 30
0.0
  0
VERTEX
  8
0
 10
68.643754
 20
-39.5097
 30
0.0
  0
VERTEX
  8
0
 10
68.008754
 20
-40.1447
 30
0.0
  0
VERTEX
  8
0
 10
68.008754
 20
-43.3197
 30
0.0
  0
VERTEX
  8
0
 10
68.008754
 20
-46.4947
 30
0.0
  0
SEQEND
  8
0
  0
POLYLINE
  8
0
 62
0
 70
1
 66
1
 10
0.0
 20
0.0
 30
0.0
  0
VERTEX
  8
0
 10
68.643754
 20
-56.0197
 30
0.0
  0
VERTEX
  8
0
 10
71.818754
 20
-56.0197
 30
0.0
  0
VERTEX
  8
0
 10
74.993754
 20
-56.0197
 30
0.0
  0
VERTEX
  8
0
 10
75.628754
 20
-55.3847
 30
0.0
  0
VERTEX
  8
0
 10
75.628754
 20
-52.2097
 30
0.0
  0
VERTEX
  8
0
 10
75.628754
 20
-49.0347
 30
0.0
  0
VERTEX
  8
0
 10
74.993754
 20
-48.3997
 30
0.0
  0
VERTEX
  8
0
 10
71.818754
 20
-48.3997
 30
0.0
  0
VERTEX
  8
0
 10
68.643754
 20
-48.3997
 30
0.0
  0
VERTEX
  8
0
 10
68.008754
 20
-49.0347
 30
0.0
  0
VERTEX
  8
0
 10
68.008754
 20
-52.2097
 30
0.0
  0
VERTEX
  8
0
 10
68.008754
 20
-55.3847
 30
0.0
  0
SEQEND
  8
0
  0
ENDSEC
  0
EOF
