  0
SECTION
  2
HEADER
  9
$ACADVER
  1
AC1009
  9
$INSBASE
 10
0.0
 20
0.0
 30
0.0
  9
$EXTMIN
 10
0.0
 20
0.0
 30
0.0
  9
$EXTMAX
 10
0.0
 20
0.0
 30
0.0
  0
ENDSEC
  0
SECTION
  2
TABLES
  0
TABLE
  2
VPORT
 70
0
  0
ENDTAB
  0
TABLE
  2
LTYPE
 70
1
  0
LTYPE
  2
CONTINUOUS
 70
0
  3
Solid line
 72
65
 73
0
 40
0.0
  0
ENDTAB
  0
TABLE
  2
LAYER
 70
1
  0
LAYER
  2
0
 70
64
 62
7
  6
continuous
  0
ENDTAB
  0
TABLE
  2
STYLE
 70
1
  0
STYLE
  2
STANDARD
 70
0
 40
0
 41
1.0
 50
0.0
 71
0
 42
1
 3
ARIAL.TTF
 4

  0
ENDTAB
  0
TABLE
  2
VIEW
 70
0
  0
ENDTAB
  0
ENDSEC
  0
SECTION
  2
BLOCKS
  0
ENDSEC
  0
SECTION
  2
ENTITIES
  0
POLYLINE
  8
0
 62
0
 70
0
 66
1
 10
0.0
 20
0.0
 30
0.0
  0
VERTEX
  8
0
 10
137.239502
 20
-110.148878
 30
0.0
  0
VERTEX
  8
0
 10
137.239502
 20
-105.492211333
 30
0.0
  0
VERTEX
  8
0
 10
137.239502
 20
-100.835544667
 30
0.0
  0
VERTEX
  8
0
 10
137.239502
 20
-96.178878
 30
0.0
  0
VERTEX
  8
0
 10
137.239502
 20
-91.5222113333
 30
0.0
  0
VERTEX
  8
0
 10
137.239502
 20
-86.8655446667
 30
0.0
  0
VERTEX
  8
0
 10
137.239502
 20
-82.208878
 30
0.0
  0
VERTEX
  8
0
 10
137.239502
 20
-77.5522113333
 30
0.0
  0
VERTEX
  8
0
 10
137.239502
 20
-72.8955446667
 30
0.0
  0
VERTEX
  8
0
 10
137.239502
 20
-68.238878
 30
0.0
  0
VERTEX
  8
0
 10
132.308913765
 20
-68.238878
 30
0.0
  0
VERTEX
  8
0
 10
127.378325529
 20
-68.238878
 30
0.0
  0
VERTEX
  8
0
 10
122.447737294
 20
-68.238878
 30
0.0
  0
VERTEX
  8
0
 10
117.517149059
 20
-68.238878
 30
0.0
  0
VERTEX
  8
0
 10
112.586560824
 20
-68.238878
 30
0.0
  0
VERTEX
  8
0
 10
107.655972588
 20
-68.238878
 30
0.0
  0
VERTEX
  8
0
 10
102.725384353
 20
-68.238878
 30
0.0
  0
VERTEX
  8
0
 10
97.7947961176
 20
-68.238878
 30
0.0
  0
VERTEX
  8
0
 10
92.8642078824
 20
-68.238878
 30
0.0
  0
VERTEX
  8
0
 10
87.9336196471
 20
-68.238878
 30
0.0
  0
VERTEX
  8
0
 10
83.0030314118
 20
-68.238878
 30
0.0
  0
VERTEX
  8
0
 10
78.0724431765
 20
-68.238878
 30
0.0
  0
VERTEX
  8
0
 10
73.1418549412
 20
-68.238878
 30
0.0
  0
VERTEX
  8
0
 10
68.2112667059
 20
-68.238878
 30
0.0
  0
VERTEX
  8
0
 10
63.2806784706
 20
-68.238878
 30
0.0
  0
VERTEX
  8
0
 10
58.3500902353
 20
-68.238878
 30
0.0
  0
VERTEX
  8
0
 10
53.419502
 20
-68.238878
 30
0.0
  0
VERTEX
  8
0
 10
53.419502
 20
-72.8955446667
 30
0.0
  0
VERTEX
  8
0
 10
53.419502
 20
-77.5522113333
 30
0.0
  0
VERTEX
  8
0
 10
53.419502
 20
-82.208878
 30
0.0
  0
VERTEX
  8
0
 10
53.419502
 20
-86.8655446667
 30
0.0
  0
VERTEX
  8
0
 10
53.419502
 20
-91.5222113333
 30
0.0
  0
VERTEX
  8
0
 10
53.419502
 20
-96.178878
 30
0.0
  0
VERTEX
  8
0
 10
53.419502
 20
-100.835544667
 30
0.0
  0
VERTEX
  8
0
 10
53.419502
 20
-105.492211333
 30
0.0
  0
VERTEX
  8
0
 10
53.419502
 20
-110.148878
 30
0.0
  0
SEQEND
  8
0
  0
POLYLINE
  8
0
 62
0
 70
0
 66
1
 10
0.0
 20
0.0
 30
0.0
  0
VERTEX
  8
0
 10
91.76258
 20
-25.693878
 30
0.0
  0
VERTEX
  8
0
 10
91.76258
 20
-28.868878
 30
0.0
  0
VERTEX
  8
0
 10
88.58758
 20
-28.868878
 30
0.0
  0
VERTEX
  8
0
 10
85.41258
 20
-28.868878
 30
0.0
  0
VERTEX
  8
0
 10
85.41258
 20
-25.693878
 30
0.0
  0
SEQEND
  8
0
  0
POLYLINE
  8
0
 62
0
 70
0
 66
1
 10
0.0
 20
0.0
 30
0.0
  0
VERTEX
  8
0
 10
104.46258
 20
-25.693878
 30
0.0
  0
VERTEX
  8
0
 10
101.28758
 20
-25.693878
 30
0.0
  0
VERTEX
  8
0
 10
98.11258
 20
-25.693878
 30
0.0
  0
SEQEND
  8
0
  0
POLYLINE
  8
0
 62
0
 70
0
 66
1
 10
0.0
 20
0.0
 30
0.0
  0
VERTEX
  8
0
 10
91.76258
 20
-25.693878
 30
0.0
  0
VERTEX
  8
0
 10
88.58758
 20
-25.693878
 30
0.0
  0
VERTEX
  8
0
 10
85.41258
 20
-25.693878
 30
0.0
  0
SEQEND
  8
0
  0
POLYLINE
  8
0
 62
0
 70
1
 66
1
 10
0.0
 20
0.0
 30
0.0
  0
VERTEX
  8
0
 10
62.109858
 20
-36.112704
 30
0.0
  0
VERTEX
  8
0
 10
62.109858
 20
-33.1493495
 30
0.0
  0
VERTEX
  8
0
 10
62.109858
 20
-30.185995
 30
0.0
  0
VERTEX
  8
0
 10
63.506858
 20
-28.70429616
 30
0.0
  0
VERTEX
  8
0
 10
67.2321913333
 20
-28.70429616
 30
0.0
  0
VERTEX
  8
0
 10
70.9575246667
 20
-28.70429616
 30
0.0
  0
VERTEX
  8
0
 10
74.682858
 20
-28.70429616
 30
0.0
  0
VERTEX
  8
0
 10
76.079858
 20
-30.185995
 30
0.0
  0
VERTEX
  8
0
 10
76.079858
 20
-33.1493495
 30
0.0
  0
VERTEX
  8
0
 10
76.079858
 20
-36.112704
 30
0.0
  0
VERTEX
  8
0
 10
74.682858
 20
-37.59430378
 30
0.0
  0
VERTEX
  8
0
 10
70.9575246667
 20
-37.59430378
 30
0.0
  0
VERTEX
  8
0
 10
67.2321913333
 20
-37.59430378
 30
0.0
  0
VERTEX
  8
0
 10
63.506858
 20
-37.59430378
 30
0.0
  0
SEQEND
  8
0
  0
POLYLINE
  8
0
 62
0
 70
0
 66
1
 10
0.0
 20
0.0
 30
0.0
  0
VERTEX
  8
0
 10
345.43492
 20
-92.189046
 30
0.0
  0
VERTEX
  8
0
 10
340.65464
 20
-92.189046
 30
0.0
  0
VERTEX
  8
0
 10
340.65464
 20
-90.339164
 30
0.0
  0
VERTEX
  8
0
 10
337.78698
 20
-90.339164
 30
0.0
  0
VERTEX
  8
0
 10
337.78698
 20
-92.189046
 30
0.0
  0
VERTEX
  8
0
 10
335.39684
 20
-92.189046
 30
0.0
  0
VERTEX
  8
0
 10
335.39684
 20
-94.989142
 30
0.0
  0
VERTEX
  8
0
 10
337.78698
 20
-94.989142
 30
0.0
  0
VERTEX
  8
0
 10
337.78698
 20
-96.839278
 30
0.0
  0
VERTEX
  8
0
 10
340.65464
 20
-96.839278
 30
0.0
  0
VERTEX
  8
0
 10
340.65464
 20
-94.989142
 30
0.0
  0
VERTEX
  8
0
 10
345.43492
 20
-94.989142
 30
0.0
  0
SEQEND
  8
0
  0
POLYLINE
  8
0
 62
0
 70
0
 66
1
 10
0.0
 20
0.0
 30
0.0
  0
VERTEX
  8
0
 10
345.43492
 20
-103.114348
 30
0.0
  0
VERTEX
  8
0
 10
348.47276
 20
-103.114348
 30
0.0
  0
VERTEX
  8
0
 10
348.47276
 20
-99.939348
 30
0.0
  0
VERTEX
  8
0
 10
348.47276
 20
-96.764348
 30
0.0
  0
VERTEX
  8
0
 10
345.43492
 20
-96.764348
 30
0.0
  0
SEQEND
  8
0
  0
POLYLINE
  8
0
 62
0
 70
0
 66
1
 10
0.0
 20
0.0
 30
0.0
  0
VERTEX
  8
0
 10
345.43492
 20
-90.414348
 30
0.0
  0
VERTEX
  8
0
 10
348.47276
 20
-90.414348
 30
0.0
  0
VERTEX
  8
0
 10
348.47276
 20
-87.239348
 30
0.0
  0
VERTEX
  8
0
 10
348.47276
 20
-84.064348
 30
0.0
  0
VERTEX
  8
0
 10
345.43492
 20
-84.064348
 30
0.0
  0
SEQEND
  8
0
  0
POLYLINE
  8
0
 62
0
 70
0
 66
1
 10
0.0
 20
0.0
 30
0.0
  0
VERTEX
  8
0
 10
345.43492
 20
-90.414348
 30
0.0
  0
VERTEX
  8
0
 10
345.43492
 20
-92.189046
 30
0.0
  0
SEQEND
  8
0
  0
POLYLINE
  8
0
 62
0
 70
0
 66
1
 10
0.0
 20
0.0
 30
0.0
  0
VERTEX
  8
0
 10
345.43492
 20
-94.989142
 30
0.0
  0
VERTEX
  8
0
 10
345.43492
 20
-96.764348
 30
0.0
  0
SEQEND
  8
0
  0
POLYLINE
  8
0
 62
0
 70
0
 66
1
 10
0.0
 20
0.0
 30
0.0
  0
VERTEX
  8
0
 10
345.43492
 20
-40.174418
 30
0.0
  0
VERTEX
  8
0
 10
340.65464
 20
-40.174418
 30
0.0
  0
VERTEX
  8
0
 10
340.65464
 20
-38.324536
 30
0.0
  0
VERTEX
  8
0
 10
337.78698
 20
-38.324536
 30
0.0
  0
VERTEX
  8
0
 10
337.78698
 20
-40.174418
 30
0.0
  0
VERTEX
  8
0
 10
335.39684
 20
-40.174418
 30
0.0
  0
VERTEX
  8
0
 10
335.39684
 20
-42.974514
 30
0.0
  0
VERTEX
  8
0
 10
337.78698
 20
-42.974514
 30
0.0
  0
VERTEX
  8
0
 10
337.78698
 20
-44.82465
 30
0.0
  0
VERTEX
  8
0
 10
340.65464
 20
-44.82465
 30
0.0
  0
VERTEX
  8
0
 10
340.65464
 20
-42.974514
 30
0.0
  0
VERTEX
  8
0
 10
345.43492
 20
-42.974514
 30
0.0
  0
SEQEND
  8
0
  0
POLYLINE
  8
0
 62
0
 70
0
 66
1
 10
0.0
 20
0.0
 30
0.0
  0
VERTEX
  8
0
 10
345.43492
 20
-51.09972
 30
0.0
  0
VERTEX
  8
0
 10
348.47276
 20
-51.09972
 30
0.0
  0
VERTEX
  8
0
 10
348.47276
 20
-47.92472
 30
0.0
  0
VERTEX
  8
0
 10
348.47276
 20
-44.74972
 30
0.0
  0
VERTEX
  8
0
 10
345.43492
 20
-44.74972
 30
0.0
  0
SEQEND
  8
0
  0
POLYLINE
  8
0
 62
0
 70
0
 66
1
 10
0.0
 20
0.0
 30
0.0
  0
VERTEX
  8
0
 10
345.43492
 20
-38.39972
 30
0.0
  0
VERTEX
  8
0
 10
348.47276
 20
-38.39972
 30
0.0
  0
VERTEX
  8
0
 10
348.47276
 20
-35.22472
 30
0.0
  0
VERTEX
  8
0
 10
348.47276
 20
-32.04972
 30
0.0
  0
VERTEX
  8
0
 10
345.43492
 20
-32.04972
 30
0.0
  0
SEQEND
  8
0
  0
POLYLINE
  8
0
 62
0
 70
0
 66
1
 10
0.0
 20
0.0
 30
0.0
  0
VERTEX
  8
0
 10
345.43492
 20
-38.39972
 30
0.0
  0
VERTEX
  8
0
 10
345.43492
 20
-40.174418
 30
0.0
  0
SEQEND
  8
0
  0
POLYLINE
  8
0
 62
0
 70
0
 66
1
 10
0.0
 20
0.0
 30
0.0
  0
VERTEX
  8
0
 10
345.43492
 20
-42.974514
 30
0.0
  0
VERTEX
  8
0
 10
345.43492
 20
-44.74972
 30
0.0
  0
SEQEND
  8
0
  0
POLYLINE
  8
0
 62
0
 70
0
 66
1
 10
0.0
 20
0.0
 30
0.0
  0
VERTEX
  8
0
 10
345.43492
 20
-104.789986
 30
0.0
  0
VERTEX
  8
0
 10
345.43492
 20
-103.114094
 30
0.0
  0
SEQEND
  8
0
  0
POLYLINE
  8
0
 62
0
 70
0
 66
1
 10
0.0
 20
0.0
 30
0.0
  0
VERTEX
  8
0
 10
303.52492
 20
-104.789986
 30
0.0
  0
VERTEX
  8
0
 10
307.330949133
 20
-104.789986
 30
0.0
  0
VERTEX
  8
0
 10
311.136978267
 20
-104.789986
 30
0.0
  0
VERTEX
  8
0
 10
314.9430074
 20
-104.789986
 30
0.0
  0
SEQEND
  8
0
  0
POLYLINE
  8
0
 62
0
 70
0
 66
1
 10
0.0
 20
0.0
 30
0.0
  0
VERTEX
  8
0
 10
321.3010084
 20
-104.789986
 30
0.0
  0
VERTEX
  8
0
 10
323.07840896
 20
-104.789986
 30
0.0
  0
SEQEND
  8
0
  0
POLYLINE
  8
0
 62
0
 70
0
 66
1
 10
0.0
 20
0.0
 30
0.0
  0
VERTEX
  8
0
 10
325.88201016
 20
-104.789986
 30
0.0
  0
VERTEX
  8
0
 10
327.65891034
 20
-104.789986
 30
0.0
  0
SEQEND
  8
0
  0
POLYLINE
  8
0
 62
0
 70
0
 66
1
 10
0.0
 20
0.0
 30
0.0
  0
VERTEX
  8
0
 10
334.01691134
 20
-104.789986
 30
0.0
  0
VERTEX
  8
0
 10
337.822915073
 20
-104.789986
 30
0.0
  0
VERTEX
  8
0
 10
341.628918807
 20
-104.789986
 30
0.0
  0
VERTEX
  8
0
 10
345.43492254
 20
-104.789986
 30
0.0
  0
SEQEND
  8
0
  0
POLYLINE
  8
0
 62
0
 70
0
 66
1
 10
0.0
 20
0.0
 30
0.0
  0
VERTEX
  8
0
 10
303.52492
 20
-30.38348
 30
0.0
  0
VERTEX
  8
0
 10
303.52492
 20
-35.3439137333
 30
0.0
  0
VERTEX
  8
0
 10
303.52492
 20
-40.3043474667
 30
0.0
  0
VERTEX
  8
0
 10
303.52492
 20
-45.2647812
 30
0.0
  0
VERTEX
  8
0
 10
303.52492
 20
-50.2252149333
 30
0.0
  0
VERTEX
  8
0
 10
303.52492
 20
-55.1856486667
 30
0.0
  0
VERTEX
  8
0
 10
303.52492
 20
-60.1460824
 30
0.0
  0
VERTEX
  8
0
 10
303.52492
 20
-65.1065161333
 30
0.0
  0
VERTEX
  8
0
 10
303.52492
 20
-70.0669498667
 30
0.0
  0
VERTEX
  8
0
 10
303.52492
 20
-75.0273836
 30
0.0
  0
VERTEX
  8
0
 10
303.52492
 20
-79.9878173333
 30
0.0
  0
VERTEX
  8
0
 10
303.52492
 20
-84.9482510667
 30
0.0
  0
VERTEX
  8
0
 10
303.52492
 20
-89.9086848
 30
0.0
  0
VERTEX
  8
0
 10
303.52492
 20
-94.8691185333
 30
0.0
  0
VERTEX
  8
0
 10
303.52492
 20
-99.8295522667
 30
0.0
  0
VERTEX
  8
0
 10
303.52492
 20
-104.789986
 30
0.0
  0
SEQEND
  8
0
  0
POLYLINE
  8
0
 62
0
 70
1
 66
1
 10
0.0
 20
0.0
 30
0.0
  0
VERTEX
  8
0
 10
56.912002
 20
-90.717878
 30
0.0
  0
VERTEX
  8
0
 10
55.388002
 20
-89.193878
 30
0.0
  0
VERTEX
  8
0
 10
56.912002
 20
-87.669878
 30
0.0
  0
VERTEX
  8
0
 10
58.436002
 20
-89.193878
 30
0.0
  0
SEQEND
  8
0
  0
POLYLINE
  8
0
 62
0
 70
0
 66
1
 10
0.0
 20
0.0
 30
0.0
  0
VERTEX
  8
0
 10
58.499502
 20
-54.268878
 30
0.0
  0
VERTEX
  8
0
 10
58.499502
 20
-51.093878
 30
0.0
  0
VERTEX
  8
0
 10
58.499502
 20
-47.918878
 30
0.0
  0
SEQEND
  8
0
  0
POLYLINE
  8
0
 62
0
 70
0
 66
1
 10
0.0
 20
0.0
 30
0.0
  0
VERTEX
  8
0
 10
135.271002
 20
-44.743878
 30
0.0
  0
VERTEX
  8
0
 10
132.223002
 20
-44.743878
 30
0.0
  0
VERTEX
  8
0
 10
135.271002
 20
-44.743878
 30
0.0
  0
SEQEND
  8
0
  0
POLYLINE
  8
0
 62
0
 70
0
 66
1
 10
0.0
 20
0.0
 30
0.0
  0
VERTEX
  8
0
 10
135.334502
 20
-54.268878
 30
0.0
  0
VERTEX
  8
0
 10
132.159502
 20
-54.268878
 30
0.0
  0
VERTEX
  8
0
 10
132.159502
 20
-51.093878
 30
0.0
  0
VERTEX
  8
0
 10
132.159502
 20
-47.918878
 30
0.0
  0
VERTEX
  8
0
 10
135.334502
 20
-47.918878
 30
0.0
  0
SEQEND
  8
0
  0
POLYLINE
  8
0
 62
0
 70
0
 66
1
 10
0.0
 20
0.0
 30
0.0
  0
VERTEX
  8
0
 10
58.499502
 20
-41.568878
 30
0.0
  0
VERTEX
  8
0
 10
58.499502
 20
-38.393878
 30
0.0
  0
VERTEX
  8
0
 10
58.499502
 20
-35.218878
 30
0.0
  0
SEQEND
  8
0
  0
POLYLINE
  8
0
 62
0
 70
0
 66
1
 10
0.0
 20
0.0
 30
0.0
  0
VERTEX
  8
0
 10
135.334502
 20
-41.568878
 30
0.0
  0
VERTEX
  8
0
 10
132.159502
 20
-41.568878
 30
0.0
  0
VERTEX
  8
0
 10
132.159502
 20
-38.393878
 30
0.0
  0
VERTEX
  8
0
 10
132.159502
 20
-35.218878
 30
0.0
  0
VERTEX
  8
0
 10
135.334502
 20
-35.218878
 30
0.0
  0
SEQEND
  8
0
  0
POLYLINE
  8
0
 62
0
 70
0
 66
1
 10
0.0
 20
0.0
 30
0.0
  0
VERTEX
  8
0
 10
135.334502
 20
-54.268878
 30
0.0
  0
VERTEX
  8
0
 10
135.334502
 20
-51.093878
 30
0.0
  0
VERTEX
  8
0
 10
135.334502
 20
-47.918878
 30
0.0
  0
SEQEND
  8
0
  0
POLYLINE
  8
0
 62
0
 70
0
 66
1
 10
0.0
 20
0.0
 30
0.0
  0
VERTEX
  8
0
 10
137.239502
 20
-65.698878
 30
0.0
  0
VERTEX
  8
0
 10
132.308913765
 20
-65.698878
 30
0.0
  0
VERTEX
  8
0
 10
127.378325529
 20
-65.698878
 30
0.0
  0
VERTEX
  8
0
 10
122.447737294
 20
-65.698878
 30
0.0
  0
VERTEX
  8
0
 10
117.517149059
 20
-65.698878
 30
0.0
  0
VERTEX
  8
0
 10
112.586560824
 20
-65.698878
 30
0.0
  0
VERTEX
  8
0
 10
107.655972588
 20
-65.698878
 30
0.0
  0
VERTEX
  8
0
 10
102.725384353
 20
-65.698878
 30
0.0
  0
VERTEX
  8
0
 10
97.7947961176
 20
-65.698878
 30
0.0
  0
VERTEX
  8
0
 10
92.8642078824
 20
-65.698878
 30
0.0
  0
VERTEX
  8
0
 10
87.9336196471
 20
-65.698878
 30
0.0
  0
VERTEX
  8
0
 10
83.0030314118
 20
-65.698878
 30
0.0
  0
VERTEX
  8
0
 10
78.0724431765
 20
-65.698878
 30
0.0
  0
VERTEX
  8
0
 10
73.1418549412
 20
-65.698878
 30
0.0
  0
VERTEX
  8
0
 10
68.2112667059
 20
-65.698878
 30
0.0
  0
VERTEX
  8
0
 10
63.2806784706
 20
-65.698878
 30
0.0
  0
VERTEX
  8
0
 10
58.3500902353
 20
-65.698878
 30
0.0
  0
VERTEX
  8
0
 10
53.419502
 20
-65.698878
 30
0.0
  0
SEQEND
  8
0
  0
POLYLINE
  8
0
 62
0
 70
0
 66
1
 10
0.0
 20
0.0
 30
0.0
  0
VERTEX
  8
0
 10
135.334502
 20
-41.568878
 30
0.0
  0
VERTEX
  8
0
 10
135.334502
 20
-38.393878
 30
0.0
  0
VERTEX
  8
0
 10
135.334502
 20
-35.218878
 30
0.0
  0
SEQEND
  8
0
  0
POLYLINE
  8
0
 62
0
 70
0
 66
1
 10
0.0
 20
0.0
 30
0.0
  0
VERTEX
  8
0
 10
87.074502
 20
-56.808878
 30
0.0
  0
VERTEX
  8
0
 10
87.074502
 20
-60.110878
 30
0.0
  0
VERTEX
  8
0
 10
83.899502
 20
-60.110878
 30
0.0
  0
VERTEX
  8
0
 10
80.724502
 20
-60.110878
 30
0.0
  0
VERTEX
  8
0
 10
80.724502
 20
-56.808878
 30
0.0
  0
SEQEND
  8
0
  0
POLYLINE
  8
0
 62
0
 70
0
 66
1
 10
0.0
 20
0.0
 30
0.0
  0
VERTEX
  8
0
 10
87.074502
 20
-56.808878
 30
0.0
  0
VERTEX
  8
0
 10
83.899502
 20
-56.808878
 30
0.0
  0
VERTEX
  8
0
 10
80.724502
 20
-56.808878
 30
0.0
  0
SEQEND
  8
0
  0
POLYLINE
  8
0
 62
0
 70
0
 66
1
 10
0.0
 20
0.0
 30
0.0
  0
VERTEX
  8
0
 10
94.93758
 20
-28.8053807943
 30
0.0
  0
VERTEX
  8
0
 10
94.93758
 20
-25.7573752057
 30
0.0
  0
VERTEX
  8
0
 10
94.93758
 20
-28.8053807943
 30
0.0
  0
SEQEND
  8
0
  0
POLYLINE
  8
0
 62
0
 70
0
 66
1
 10
0.0
 20
0.0
 30
0.0
  0
VERTEX
  8
0
 10
156.964634
 20
-103.146606
 30
0.0
  0
VERTEX
  8
0
 10
156.964634
 20
-102.49940638
 30
0.0
  0
VERTEX
  8
0
 10
156.964634
 20
-101.876606
 30
0.0
  0
VERTEX
  8
0
 10
155.694634
 20
-100.606606
 30
0.0
  0
VERTEX
  8
0
 10
151.7345454
 20
-100.606606
 30
0.0
  0
VERTEX
  8
0
 10
150.4645454
 20
-101.876606
 30
0.0
  0
VERTEX
  8
0
 10
150.4645454
 20
-102.511606
 30
0.0
  0
SEQEND
  8
0
  0
POLYLINE
  8
0
 62
0
 70
0
 66
1
 10
0.0
 20
0.0
 30
0.0
  0
VERTEX
  8
0
 10
104.46258
 20
-25.693878
 30
0.0
  0
VERTEX
  8
0
 10
104.46258
 20
-28.868878
 30
0.0
  0
VERTEX
  8
0
 10
101.28758
 20
-28.868878
 30
0.0
  0
VERTEX
  8
0
 10
98.11258
 20
-28.868878
 30
0.0
  0
VERTEX
  8
0
 10
98.11258
 20
-25.693878
 30
0.0
  0
SEQEND
  8
0
  0
POLYLINE
  8
0
 62
0
 70
0
 66
1
 10
0.0
 20
0.0
 30
0.0
  0
VERTEX
  8
0
 10
135.334502
 20
-86.018878
 30
0.0
  0
VERTEX
  8
0
 10
132.159502
 20
-86.018878
 30
0.0
  0
VERTEX
  8
0
 10
132.159502
 20
-82.843878
 30
0.0
  0
VERTEX
  8
0
 10
132.159502
 20
-79.668878
 30
0.0
  0
VERTEX
  8
0
 10
135.334502
 20
-79.668878
 30
0.0
  0
SEQEND
  8
0
  0
POLYLINE
  8
0
 62
0
 70
0
 66
1
 10
0.0
 20
0.0
 30
0.0
  0
VERTEX
  8
0
 10
135.334502
 20
-98.718878
 30
0.0
  0
VERTEX
  8
0
 10
135.334502
 20
-95.543878
 30
0.0
  0
VERTEX
  8
0
 10
135.334502
 20
-92.368878
 30
0.0
  0
SEQEND
  8
0
  0
POLYLINE
  8
0
 62
0
 70
0
 66
1
 10
0.0
 20
0.0
 30
0.0
  0
VERTEX
  8
0
 10
137.239502
 20
-110.148878
 30
0.0
  0
VERTEX
  8
0
 10
132.308913765
 20
-110.148878
 30
0.0
  0
VERTEX
  8
0
 10
127.378325529
 20
-110.148878
 30
0.0
  0
VERTEX
  8
0
 10
122.447737294
 20
-110.148878
 30
0.0
  0
VERTEX
  8
0
 10
117.517149059
 20
-110.148878
 30
0.0
  0
VERTEX
  8
0
 10
112.586560824
 20
-110.148878
 30
0.0
  0
VERTEX
  8
0
 10
107.655972588
 20
-110.148878
 30
0.0
  0
VERTEX
  8
0
 10
102.725384353
 20
-110.148878
 30
0.0
  0
VERTEX
  8
0
 10
97.7947961176
 20
-110.148878
 30
0.0
  0
VERTEX
  8
0
 10
92.8642078824
 20
-110.148878
 30
0.0
  0
VERTEX
  8
0
 10
87.9336196471
 20
-110.148878
 30
0.0
  0
VERTEX
  8
0
 10
83.0030314118
 20
-110.148878
 30
0.0
  0
VERTEX
  8
0
 10
78.0724431765
 20
-110.148878
 30
0.0
  0
VERTEX
  8
0
 10
73.1418549412
 20
-110.148878
 30
0.0
  0
VERTEX
  8
0
 10
68.2112667059
 20
-110.148878
 30
0.0
  0
VERTEX
  8
0
 10
63.2806784706
 20
-110.148878
 30
0.0
  0
VERTEX
  8
0
 10
58.3500902353
 20
-110.148878
 30
0.0
  0
VERTEX
  8
0
 10
53.419502
 20
-110.148878
 30
0.0
  0
SEQEND
  8
0
  0
POLYLINE
  8
0
 62
0
 70
0
 66
1
 10
0.0
 20
0.0
 30
0.0
  0
VERTEX
  8
0
 10
135.334502
 20
-86.018878
 30
0.0
  0
VERTEX
  8
0
 10
135.334502
 20
-82.843878
 30
0.0
  0
VERTEX
  8
0
 10
135.334502
 20
-79.668878
 30
0.0
  0
SEQEND
  8
0
  0
POLYLINE
  8
0
 62
0
 70
0
 66
1
 10
0.0
 20
0.0
 30
0.0
  0
VERTEX
  8
0
 10
109.934502
 20
-101.258878
 30
0.0
  0
VERTEX
  8
0
 10
109.934502
 20
-104.560878
 30
0.0
  0
VERTEX
  8
0
 10
106.759502
 20
-104.560878
 30
0.0
  0
VERTEX
  8
0
 10
103.584502
 20
-104.560878
 30
0.0
  0
VERTEX
  8
0
 10
103.584502
 20
-101.258878
 30
0.0
  0
SEQEND
  8
0
  0
POLYLINE
  8
0
 62
0
 70
0
 66
1
 10
0.0
 20
0.0
 30
0.0
  0
VERTEX
  8
0
 10
109.934502
 20
-101.258878
 30
0.0
  0
VERTEX
  8
0
 10
106.759502
 20
-101.258878
 30
0.0
  0
VERTEX
  8
0
 10
103.584502
 20
-101.258878
 30
0.0
  0
SEQEND
  8
0
  0
POLYLINE
  8
0
 62
0
 70
1
 66
1
 10
0.0
 20
0.0
 30
0.0
  0
VERTEX
  8
0
 10
96.46158
 20
-71.731378
 30
0.0
  0
VERTEX
  8
0
 10
94.93758
 20
-73.255378
 30
0.0
  0
VERTEX
  8
0
 10
93.41358
 20
-71.731378
 30
0.0
  0
VERTEX
  8
0
 10
94.93758
 20
-70.207378
 30
0.0
  0
SEQEND
  8
0
  0
POLYLINE
  8
0
 62
0
 70
0
 66
1
 10
0.0
 20
0.0
 30
0.0
  0
VERTEX
  8
0
 10
104.46258
 20
-70.143878
 30
0.0
  0
VERTEX
  8
0
 10
104.46258
 20
-73.318878
 30
0.0
  0
VERTEX
  8
0
 10
101.28758
 20
-73.318878
 30
0.0
  0
VERTEX
  8
0
 10
98.11258
 20
-73.318878
 30
0.0
  0
VERTEX
  8
0
 10
98.11258
 20
-70.143878
 30
0.0
  0
SEQEND
  8
0
  0
POLYLINE
  8
0
 62
0
 70
0
 66
1
 10
0.0
 20
0.0
 30
0.0
  0
VERTEX
  8
0
 10
91.76258
 20
-70.143878
 30
0.0
  0
VERTEX
  8
0
 10
91.76258
 20
-73.318878
 30
0.0
  0
VERTEX
  8
0
 10
88.58758
 20
-73.318878
 30
0.0
  0
VERTEX
  8
0
 10
85.41258
 20
-73.318878
 30
0.0
  0
VERTEX
  8
0
 10
85.41258
 20
-70.143878
 30
0.0
  0
SEQEND
  8
0
  0
POLYLINE
  8
0
 62
0
 70
0
 66
1
 10
0.0
 20
0.0
 30
0.0
  0
VERTEX
  8
0
 10
104.46258
 20
-70.143878
 30
0.0
  0
VERTEX
  8
0
 10
101.28758
 20
-70.143878
 30
0.0
  0
VERTEX
  8
0
 10
98.11258
 20
-70.143878
 30
0.0
  0
SEQEND
  8
0
  0
POLYLINE
  8
0
 62
0
 70
0
 66
1
 10
0.0
 20
0.0
 30
0.0
  0
VERTEX
  8
0
 10
137.239502
 20
-65.698878
 30
0.0
  0
VERTEX
  8
0
 10
137.239502
 20
-61.0422141556
 30
0.0
  0
VERTEX
  8
0
 10
137.239502
 20
-56.3855503111
 30
0.0
  0
VERTEX
  8
0
 10
137.239502
 20
-51.7288864667
 30
0.0
  0
VERTEX
  8
0
 10
137.239502
 20
-47.0722226222
 30
0.0
  0
VERTEX
  8
0
 10
137.239502
 20
-42.4155587778
 30
0.0
  0
VERTEX
  8
0
 10
137.239502
 20
-37.7588949333
 30
0.0
  0
VERTEX
  8
0
 10
137.239502
 20
-33.1022310889
 30
0.0
  0
VERTEX
  8
0
 10
137.239502
 20
-28.4455672444
 30
0.0
  0
VERTEX
  8
0
 10
137.239502
 20
-23.7889034
 30
0.0
  0
VERTEX
  8
0
 10
132.308913765
 20
-23.7889034
 30
0.0
  0
VERTEX
  8
0
 10
127.378325529
 20
-23.7889034
 30
0.0
  0
VERTEX
  8
0
 10
122.447737294
 20
-23.7889034
 30
0.0
  0
VERTEX
  8
0
 10
117.517149059
 20
-23.7889034
 30
0.0
  0
VERTEX
  8
0
 10
112.586560824
 20
-23.7889034
 30
0.0
  0
VERTEX
  8
0
 10
107.655972588
 20
-23.7889034
 30
0.0
  0
VERTEX
  8
0
 10
102.725384353
 20
-23.7889034
 30
0.0
  0
VERTEX
  8
0
 10
97.7947961176
 20
-23.7889034
 30
0.0
  0
VERTEX
  8
0
 10
92.8642078824
 20
-23.7889034
 30
0.0
  0
VERTEX
  8
0
 10
87.9336196471
 20
-23.7889034
 30
0.0
  0
VERTEX
  8
0
 10
83.0030314118
 20
-23.7889034
 30
0.0
  0
VERTEX
  8
0
 10
78.0724431765
 20
-23.7889034
 30
0.0
  0
VERTEX
  8
0
 10
73.1418549412
 20
-23.7889034
 30
0.0
  0
VERTEX
  8
0
 10
68.2112667059
 20
-23.7889034
 30
0.0
  0
VERTEX
  8
0
 10
63.2806784706
 20
-23.7889034
 30
0.0
  0
VERTEX
  8
0
 10
58.3500902353
 20
-23.7889034
 30
0.0
  0
VERTEX
  8
0
 10
53.419502
 20
-23.7889034
 30
0.0
  0
VERTEX
  8
0
 10
53.419502
 20
-28.4455672444
 30
0.0
  0
VERTEX
  8
0
 10
53.419502
 20
-33.1022310889
 30
0.0
  0
VERTEX
  8
0
 10
53.419502
 20
-37.7588949333
 30
0.0
  0
VERTEX
  8
0
 10
53.419502
 20
-42.4155587778
 30
0.0
  0
VERTEX
  8
0
 10
53.419502
 20
-47.0722226222
 30
0.0
  0
VERTEX
  8
0
 10
53.419502
 20
-51.7288864667
 30
0.0
  0
VERTEX
  8
0
 10
53.419502
 20
-56.3855503111
 30
0.0
  0
VERTEX
  8
0
 10
53.419502
 20
-61.0422141556
 30
0.0
  0
VERTEX
  8
0
 10
53.419502
 20
-65.698878
 30
0.0
  0
SEQEND
  8
0
  0
POLYLINE
  8
0
 62
0
 70
0
 66
1
 10
0.0
 20
0.0
 30
0.0
  0
VERTEX
  8
0
 10
91.76258
 20
-70.143878
 30
0.0
  0
VERTEX
  8
0
 10
88.58758
 20
-70.143878
 30
0.0
  0
VERTEX
  8
0
 10
85.41258
 20
-70.143878
 30
0.0
  0
SEQEND
  8
0
  0
POLYLINE
  8
0
 62
0
 70
0
 66
1
 10
0.0
 20
0.0
 30
0.0
  0
VERTEX
  8
0
 10
58.436002
 20
-44.743878
 30
0.0
  0
VERTEX
  8
0
 10
55.388002
 20
-44.743878
 30
0.0
  0
VERTEX
  8
0
 10
58.436002
 20
-44.743878
 30
0.0
  0
SEQEND
  8
0
  0
POLYLINE
  8
0
 62
0
 70
0
 66
1
 10
0.0
 20
0.0
 30
0.0
  0
VERTEX
  8
0
 10
58.499502
 20
-54.268878
 30
0.0
  0
VERTEX
  8
0
 10
55.324502
 20
-54.268878
 30
0.0
  0
VERTEX
  8
0
 10
55.324502
 20
-51.093878
 30
0.0
  0
VERTEX
  8
0
 10
55.324502
 20
-47.918878
 30
0.0
  0
VERTEX
  8
0
 10
58.499502
 20
-47.918878
 30
0.0
  0
SEQEND
  8
0
  0
POLYLINE
  8
0
 62
0
 70
0
 66
1
 10
0.0
 20
0.0
 30
0.0
  0
VERTEX
  8
0
 10
58.499502
 20
-41.568878
 30
0.0
  0
VERTEX
  8
0
 10
55.324502
 20
-41.568878
 30
0.0
  0
VERTEX
  8
0
 10
55.324502
 20
-38.393878
 30
0.0
  0
VERTEX
  8
0
 10
55.324502
 20
-35.218878
 30
0.0
  0
VERTEX
  8
0
 10
58.499502
 20
-35.218878
 30
0.0
  0
SEQEND
  8
0
  0
POLYLINE
  8
0
 62
0
 70
0
 66
1
 10
0.0
 20
0.0
 30
0.0
  0
VERTEX
  8
0
 10
58.499502
 20
-98.718878
 30
0.0
  0
VERTEX
  8
0
 10
55.324502
 20
-98.718878
 30
0.0
  0
VERTEX
  8
0
 10
55.324502
 20
-95.543878
 30
0.0
  0
VERTEX
  8
0
 10
55.324502
 20
-92.368878
 30
0.0
  0
VERTEX
  8
0
 10
58.499502
 20
-92.368878
 30
0.0
  0
SEQEND
  8
0
  0
POLYLINE
  8
0
 62
0
 70
0
 66
1
 10
0.0
 20
0.0
 30
0.0
  0
VERTEX
  8
0
 10
58.499502
 20
-86.018878
 30
0.0
  0
VERTEX
  8
0
 10
55.324502
 20
-86.018878
 30
0.0
  0
VERTEX
  8
0
 10
55.324502
 20
-82.843878
 30
0.0
  0
VERTEX
  8
0
 10
55.324502
 20
-79.668878
 30
0.0
  0
VERTEX
  8
0
 10
58.499502
 20
-79.668878
 30
0.0
  0
SEQEND
  8
0
  0
POLYLINE
  8
0
 62
0
 70
0
 66
1
 10
0.0
 20
0.0
 30
0.0
  0
VERTEX
  8
0
 10
58.499502
 20
-98.718878
 30
0.0
  0
VERTEX
  8
0
 10
58.499502
 20
-95.543878
 30
0.0
  0
VERTEX
  8
0
 10
58.499502
 20
-92.368878
 30
0.0
  0
SEQEND
  8
0
  0
POLYLINE
  8
0
 62
0
 70
0
 66
1
 10
0.0
 20
0.0
 30
0.0
  0
VERTEX
  8
0
 10
58.499502
 20
-86.018878
 30
0.0
  0
VERTEX
  8
0
 10
58.499502
 20
-82.843878
 30
0.0
  0
VERTEX
  8
0
 10
58.499502
 20
-79.668878
 30
0.0
  0
SEQEND
  8
0
  0
POLYLINE
  8
0
 62
0
 70
1
 66
1
 10
0.0
 20
0.0
 30
0.0
  0
VERTEX
  8
0
 10
133.747002
 20
-90.717878
 30
0.0
  0
VERTEX
  8
0
 10
132.223002
 20
-89.193878
 30
0.0
  0
VERTEX
  8
0
 10
133.747002
 20
-87.669878
 30
0.0
  0
VERTEX
  8
0
 10
135.271002
 20
-89.193878
 30
0.0
  0
SEQEND
  8
0
  0
POLYLINE
  8
0
 62
0
 70
0
 66
1
 10
0.0
 20
0.0
 30
0.0
  0
VERTEX
  8
0
 10
135.334502
 20
-98.718878
 30
0.0
  0
VERTEX
  8
0
 10
132.159502
 20
-98.718878
 30
0.0
  0
VERTEX
  8
0
 10
132.159502
 20
-95.543878
 30
0.0
  0
VERTEX
  8
0
 10
132.159502
 20
-92.368878
 30
0.0
  0
VERTEX
  8
0
 10
135.334502
 20
-92.368878
 30
0.0
  0
SEQEND
  8
0
  0
POLYLINE
  8
0
 62
0
 70
0
 66
1
 10
0.0
 20
0.0
 30
0.0
  0
VERTEX
  8
0
 10
150.46452
 20
-30.756606
 30
0.0
  0
VERTEX
  8
0
 10
146.489166
 20
-30.756606
 30
0.0
  0
VERTEX
  8
0
 10
142.513812
 20
-30.756606
 30
0.0
  0
VERTEX
  8
0
 10
142.513812
 20
-35.1991676
 30
0.0
  0
VERTEX
  8
0
 10
142.513812
 20
-39.6417292
 30
0.0
  0
VERTEX
  8
0
 10
142.513812
 20
-44.0842908
 30
0.0
  0
VERTEX
  8
0
 10
142.513812
 20
-48.5268524
 30
0.0
  0
VERTEX
  8
0
 10
142.513812
 20
-52.969414
 30
0.0
  0
SEQEND
  8
0
  0
POLYLINE
  8
0
 62
0
 70
0
 66
1
 10
0.0
 20
0.0
 30
0.0
  0
VERTEX
  8
0
 10
202.203812
 20
-30.756606
 30
0.0
  0
VERTEX
  8
0
 10
197.6798942
 20
-30.756606
 30
0.0
  0
VERTEX
  8
0
 10
193.1559764
 20
-30.756606
 30
0.0
  0
VERTEX
  8
0
 10
188.6320586
 20
-30.756606
 30
0.0
  0
VERTEX
  8
0
 10
184.1081408
 20
-30.756606
 30
0.0
  0
VERTEX
  8
0
 10
179.584223
 20
-30.756606
 30
0.0
  0
VERTEX
  8
0
 10
175.0603052
 20
-30.756606
 30
0.0
  0
VERTEX
  8
0
 10
170.5363874
 20
-30.756606
 30
0.0
  0
VERTEX
  8
0
 10
166.0124696
 20
-30.756606
 30
0.0
  0
VERTEX
  8
0
 10
161.4885518
 20
-30.756606
 30
0.0
  0
VERTEX
  8
0
 10
156.964634
 20
-30.756606
 30
0.0
  0
SEQEND
  8
0
  0
POLYLINE
  8
0
 62
0
 70
0
 66
1
 10
0.0
 20
0.0
 30
0.0
  0
VERTEX
  8
0
 10
216.173812
 20
-52.969414
 30
0.0
  0
VERTEX
  8
0
 10
216.173812
 20
-49.3751446667
 30
0.0
  0
VERTEX
  8
0
 10
216.173812
 20
-45.7808753333
 30
0.0
  0
VERTEX
  8
0
 10
216.173812
 20
-42.186606
 30
0.0
  0
SEQEND
  8
0
  0
POLYLINE
  8
0
 62
0
 70
0
 66
1
 10
0.0
 20
0.0
 30
0.0
  0
VERTEX
  8
0
 10
208.223104
 20
-104.416606
 30
0.0
  0
VERTEX
  8
0
 10
212.198458
 20
-104.416606
 30
0.0
  0
VERTEX
  8
0
 10
216.173812
 20
-104.416606
 30
0.0
  0
VERTEX
  8
0
 10
216.173812
 20
-99.9739936
 30
0.0
  0
VERTEX
  8
0
 10
216.173812
 20
-95.5313812
 30
0.0
  0
VERTEX
  8
0
 10
216.173812
 20
-91.0887688
 30
0.0
  0
VERTEX
  8
0
 10
216.173812
 20
-86.6461564
 30
0.0
  0
VERTEX
  8
0
 10
216.173812
 20
-82.203544
 30
0.0
  0
SEQEND
  8
0
  0
POLYLINE
  8
0
 62
0
 70
0
 66
1
 10
0.0
 20
0.0
 30
0.0
  0
VERTEX
  8
0
 10
156.964634
 20
-104.416606
 30
0.0
  0
VERTEX
  8
0
 10
161.937812889
 20
-104.416606
 30
0.0
  0
VERTEX
  8
0
 10
166.910991778
 20
-104.416606
 30
0.0
  0
VERTEX
  8
0
 10
171.884170667
 20
-104.416606
 30
0.0
  0
VERTEX
  8
0
 10
176.857349556
 20
-104.416606
 30
0.0
  0
VERTEX
  8
0
 10
181.830528444
 20
-104.416606
 30
0.0
  0
VERTEX
  8
0
 10
186.803707333
 20
-104.416606
 30
0.0
  0
VERTEX
  8
0
 10
191.776886222
 20
-104.416606
 30
0.0
  0
VERTEX
  8
0
 10
196.750065111
 20
-104.416606
 30
0.0
  0
VERTEX
  8
0
 10
201.723244
 20
-104.416606
 30
0.0
  0
SEQEND
  8
0
  0
POLYLINE
  8
0
 62
0
 70
0
 66
1
 10
0.0
 20
0.0
 30
0.0
  0
VERTEX
  8
0
 10
142.513812
 20
-82.20329
 30
0.0
  0
VERTEX
  8
0
 10
142.513812
 20
-86.6459532
 30
0.0
  0
VERTEX
  8
0
 10
142.513812
 20
-91.0886164
 30
0.0
  0
VERTEX
  8
0
 10
142.513812
 20
-95.5312796
 30
0.0
  0
VERTEX
  8
0
 10
142.513812
 20
-99.9739428
 30
0.0
  0
VERTEX
  8
0
 10
142.513812
 20
-104.416606
 30
0.0
  0
VERTEX
  8
0
 10
146.489293
 20
-104.416606
 30
0.0
  0
VERTEX
  8
0
 10
150.464774
 20
-104.416606
 30
0.0
  0
SEQEND
  8
0
  0
POLYLINE
  8
0
 62
0
 70
0
 66
1
 10
0.0
 20
0.0
 30
0.0
  0
VERTEX
  8
0
 10
142.513558
 20
-52.969414
 30
0.0
  0
VERTEX
  8
0
 10
139.47775
 20
-52.969414
 30
0.0
  0
VERTEX
  8
0
 10
139.47775
 20
-56.148478
 30
0.0
  0
VERTEX
  8
0
 10
139.47775
 20
-59.327542
 30
0.0
  0
VERTEX
  8
0
 10
142.513558
 20
-59.327542
 30
0.0
  0
VERTEX
  8
0
 10
142.513558
 20
-63.4570105
 30
0.0
  0
VERTEX
  8
0
 10
142.513558
 20
-67.586479
 30
0.0
  0
VERTEX
  8
0
 10
142.513558
 20
-71.7159475
 30
0.0
  0
VERTEX
  8
0
 10
142.513558
 20
-75.845416
 30
0.0
  0
SEQEND
  8
0
  0
POLYLINE
  8
0
 62
0
 70
0
 66
1
 10
0.0
 20
0.0
 30
0.0
  0
VERTEX
  8
0
 10
142.513558
 20
-75.845416
 30
0.0
  0
VERTEX
  8
0
 10
139.47775
 20
-75.845416
 30
0.0
  0
VERTEX
  8
0
 10
139.47775
 20
-79.024353
 30
0.0
  0
VERTEX
  8
0
 10
139.47775
 20
-82.20329
 30
0.0
  0
VERTEX
  8
0
 10
142.513558
 20
-82.20329
 30
0.0
  0
SEQEND
  8
0
  0
POLYLINE
  8
0
 62
0
 70
0
 66
1
 10
0.0
 20
0.0
 30
0.0
  0
VERTEX
  8
0
 10
216.174066
 20
-52.969414
 30
0.0
  0
VERTEX
  8
0
 10
219.209874
 20
-52.969414
 30
0.0
  0
VERTEX
  8
0
 10
219.209874
 20
-56.148478
 30
0.0
  0
VERTEX
  8
0
 10
219.209874
 20
-59.327542
 30
0.0
  0
VERTEX
  8
0
 10
216.174066
 20
-59.327542
 30
0.0
  0
SEQEND
  8
0
  0
POLYLINE
  8
0
 62
0
 70
0
 66
1
 10
0.0
 20
0.0
 30
0.0
  0
VERTEX
  8
0
 10
216.174066
 20
-75.845416
 30
0.0
  0
VERTEX
  8
0
 10
219.209874
 20
-75.845416
 30
0.0
  0
VERTEX
  8
0
 10
219.209874
 20
-79.024353
 30
0.0
  0
VERTEX
  8
0
 10
219.209874
 20
-82.20329
 30
0.0
  0
VERTEX
  8
0
 10
216.174066
 20
-82.20329
 30
0.0
  0
SEQEND
  8
0
  0
POLYLINE
  8
0
 62
0
 70
0
 66
1
 10
0.0
 20
0.0
 30
0.0
  0
VERTEX
  8
0
 10
156.964634
 20
-104.416606
 30
0.0
  0
VERTEX
  8
0
 10
156.964634
 20
-103.146606
 30
0.0
  0
SEQEND
  8
0
  0
POLYLINE
  8
0
 62
0
 70
0
 66
1
 10
0.0
 20
0.0
 30
0.0
  0
VERTEX
  8
0
 10
150.46452
 20
-104.416606
 30
0.0
  0
VERTEX
  8
0
 10
150.46452
 20
-102.511606
 30
0.0
  0
SEQEND
  8
0
  0
POLYLINE
  8
0
 62
0
 70
0
 66
1
 10
0.0
 20
0.0
 30
0.0
  0
VERTEX
  8
0
 10
208.223104
 20
-103.146606
 30
0.0
  0
VERTEX
  8
0
 10
208.223104
 20
-102.49940638
 30
0.0
  0
VERTEX
  8
0
 10
208.223104
 20
-101.876606
 30
0.0
  0
VERTEX
  8
0
 10
206.953104
 20
-100.606606
 30
0.0
  0
VERTEX
  8
0
 10
202.9930154
 20
-100.606606
 30
0.0
  0
VERTEX
  8
0
 10
201.7230154
 20
-101.876606
 30
0.0
  0
VERTEX
  8
0
 10
201.7230154
 20
-102.511606
 30
0.0
  0
SEQEND
  8
0
  0
POLYLINE
  8
0
 62
0
 70
0
 66
1
 10
0.0
 20
0.0
 30
0.0
  0
VERTEX
  8
0
 10
208.223104
 20
-104.416606
 30
0.0
  0
VERTEX
  8
0
 10
208.223104
 20
-103.146606
 30
0.0
  0
SEQEND
  8
0
  0
POLYLINE
  8
0
 62
0
 70
0
 66
1
 10
0.0
 20
0.0
 30
0.0
  0
VERTEX
  8
0
 10
201.72299
 20
-104.416606
 30
0.0
  0
VERTEX
  8
0
 10
201.72299
 20
-102.511606
 30
0.0
  0
SEQEND
  8
0
  0
POLYLINE
  8
0
 62
0
 70
0
 66
1
 10
0.0
 20
0.0
 30
0.0
  0
VERTEX
  8
0
 10
216.174066
 20
-59.327542
 30
0.0
  0
VERTEX
  8
0
 10
216.174066
 20
-63.4570105
 30
0.0
  0
VERTEX
  8
0
 10
216.174066
 20
-67.586479
 30
0.0
  0
VERTEX
  8
0
 10
216.174066
 20
-71.7159475
 30
0.0
  0
VERTEX
  8
0
 10
216.174066
 20
-75.845416
 30
0.0
  0
SEQEND
  8
0
  0
POLYLINE
  8
0
 62
0
 70
0
 66
1
 10
0.0
 20
0.0
 30
0.0
  0
VERTEX
  8
0
 10
87.074502
 20
-101.258878
 30
0.0
  0
VERTEX
  8
0
 10
87.074502
 20
-104.560878
 30
0.0
  0
VERTEX
  8
0
 10
83.899502
 20
-104.560878
 30
0.0
  0
VERTEX
  8
0
 10
80.724502
 20
-104.560878
 30
0.0
  0
VERTEX
  8
0
 10
80.724502
 20
-101.258878
 30
0.0
  0
SEQEND
  8
0
  0
POLYLINE
  8
0
 62
0
 70
0
 66
1
 10
0.0
 20
0.0
 30
0.0
  0
VERTEX
  8
0
 10
87.074502
 20
-101.258878
 30
0.0
  0
VERTEX
  8
0
 10
83.899502
 20
-101.258878
 30
0.0
  0
VERTEX
  8
0
 10
80.724502
 20
-101.258878
 30
0.0
  0
SEQEND
  8
0
  0
POLYLINE
  8
0
 62
0
 70
0
 66
1
 10
0.0
 20
0.0
 30
0.0
  0
VERTEX
  8
0
 10
109.934502
 20
-56.808878
 30
0.0
  0
VERTEX
  8
0
 10
109.934502
 20
-60.110878
 30
0.0
  0
VERTEX
  8
0
 10
106.759502
 20
-60.110878
 30
0.0
  0
VERTEX
  8
0
 10
103.584502
 20
-60.110878
 30
0.0
  0
VERTEX
  8
0
 10
103.584502
 20
-56.808878
 30
0.0
  0
SEQEND
  8
0
  0
POLYLINE
  8
0
 62
0
 70
0
 66
1
 10
0.0
 20
0.0
 30
0.0
  0
VERTEX
  8
0
 10
109.934502
 20
-56.808878
 30
0.0
  0
VERTEX
  8
0
 10
106.759502
 20
-56.808878
 30
0.0
  0
VERTEX
  8
0
 10
103.584502
 20
-56.808878
 30
0.0
  0
SEQEND
  8
0
  0
POLYLINE
  8
0
 62
0
 70
0
 66
1
 10
0.0
 20
0.0
 30
0.0
  0
VERTEX
  8
0
 10
345.43492
 20
-32.04972
 30
0.0
  0
VERTEX
  8
0
 10
345.43492
 20
-30.38348
 30
0.0
  0
SEQEND
  8
0
  0
POLYLINE
  8
0
 62
0
 70
0
 66
1
 10
0.0
 20
0.0
 30
0.0
  0
VERTEX
  8
0
 10
345.43492
 20
-84.064348
 30
0.0
  0
VERTEX
  8
0
 10
345.43492
 20
-79.3551154286
 30
0.0
  0
VERTEX
  8
0
 10
345.43492
 20
-74.6458828571
 30
0.0
  0
VERTEX
  8
0
 10
345.43492
 20
-69.9366502857
 30
0.0
  0
VERTEX
  8
0
 10
345.43492
 20
-65.2274177143
 30
0.0
  0
VERTEX
  8
0
 10
345.43492
 20
-60.5181851429
 30
0.0
  0
VERTEX
  8
0
 10
345.43492
 20
-55.8089525714
 30
0.0
  0
VERTEX
  8
0
 10
345.43492
 20
-51.09972
 30
0.0
  0
SEQEND
  8
0
  0
POLYLINE
  8
0
 62
0
 70
0
 66
1
 10
0.0
 20
0.0
 30
0.0
  0
VERTEX
  8
0
 10
325.882
 20
-104.789732
 30
0.0
  0
VERTEX
  8
0
 10
325.882
 20
-100.009452
 30
0.0
  0
VERTEX
  8
0
 10
327.7362
 20
-100.009452
 30
0.0
  0
VERTEX
  8
0
 10
327.7362
 20
-97.140776
 30
0.0
  0
VERTEX
  8
0
 10
325.882
 20
-97.140776
 30
0.0
  0
VERTEX
  8
0
 10
325.882
 20
-94.750128
 30
0.0
  0
VERTEX
  8
0
 10
323.08038
 20
-94.750128
 30
0.0
  0
VERTEX
  8
0
 10
323.08038
 20
-97.140776
 30
0.0
  0
VERTEX
  8
0
 10
321.22618
 20
-97.140776
 30
0.0
  0
VERTEX
  8
0
 10
321.22618
 20
-100.009452
 30
0.0
  0
VERTEX
  8
0
 10
323.08038
 20
-100.009452
 30
0.0
  0
VERTEX
  8
0
 10
323.08038
 20
-104.789732
 30
0.0
  0
SEQEND
  8
0
  0
POLYLINE
  8
0
 62
0
 70
0
 66
1
 10
0.0
 20
0.0
 30
0.0
  0
VERTEX
  8
0
 10
314.94476
 20
-104.789986
 30
0.0
  0
VERTEX
  8
0
 10
314.94476
 20
-107.825794
 30
0.0
  0
VERTEX
  8
0
 10
318.12357
 20
-107.825794
 30
0.0
  0
VERTEX
  8
0
 10
321.30238
 20
-107.825794
 30
0.0
  0
VERTEX
  8
0
 10
321.30238
 20
-104.789986
 30
0.0
  0
SEQEND
  8
0
  0
POLYLINE
  8
0
 62
0
 70
0
 66
1
 10
0.0
 20
0.0
 30
0.0
  0
VERTEX
  8
0
 10
327.66
 20
-104.789986
 30
0.0
  0
VERTEX
  8
0
 10
327.66
 20
-107.825794
 30
0.0
  0
VERTEX
  8
0
 10
330.83881
 20
-107.825794
 30
0.0
  0
VERTEX
  8
0
 10
334.01762
 20
-107.825794
 30
0.0
  0
VERTEX
  8
0
 10
334.01762
 20
-104.789986
 30
0.0
  0
SEQEND
  8
0
  0
POLYLINE
  8
0
 62
0
 70
0
 66
1
 10
0.0
 20
0.0
 30
0.0
  0
VERTEX
  8
0
 10
327.66
 20
-104.789986
 30
0.0
  0
VERTEX
  8
0
 10
325.882
 20
-104.789986
 30
0.0
  0
SEQEND
  8
0
  0
POLYLINE
  8
0
 62
0
 70
0
 66
1
 10
0.0
 20
0.0
 30
0.0
  0
VERTEX
  8
0
 10
323.08038
 20
-104.789986
 30
0.0
  0
VERTEX
  8
0
 10
321.30238
 20
-104.789986
 30
0.0
  0
SEQEND
  8
0
  0
POLYLINE
  8
0
 62
0
 70
0
 66
1
 10
0.0
 20
0.0
 30
0.0
  0
VERTEX
  8
0
 10
345.43492
 20
-30.38348
 30
0.0
  0
VERTEX
  8
0
 10
341.628890867
 20
-30.38348
 30
0.0
  0
VERTEX
  8
0
 10
337.822861733
 20
-30.38348
 30
0.0
  0
VERTEX
  8
0
 10
334.0168326
 20
-30.38348
 30
0.0
  0
SEQEND
  8
0
  0
POLYLINE
  8
0
 62
0
 70
0
 66
1
 10
0.0
 20
0.0
 30
0.0
  0
VERTEX
  8
0
 10
327.6588316
 20
-30.38348
 30
0.0
  0
VERTEX
  8
0
 10
325.88143104
 20
-30.38348
 30
0.0
  0
SEQEND
  8
0
  0
POLYLINE
  8
0
 62
0
 70
0
 66
1
 10
0.0
 20
0.0
 30
0.0
  0
VERTEX
  8
0
 10
323.07782984
 20
-30.38348
 30
0.0
  0
VERTEX
  8
0
 10
321.30092966
 20
-30.38348
 30
0.0
  0
SEQEND
  8
0
  0
POLYLINE
  8
0
 62
0
 70
0
 66
1
 10
0.0
 20
0.0
 30
0.0
  0
VERTEX
  8
0
 10
314.94292866
 20
-30.38348
 30
0.0
  0
VERTEX
  8
0
 10
311.136899527
 20
-30.38348
 30
0.0
  0
VERTEX
  8
0
 10
307.330870393
 20
-30.38348
 30
0.0
  0
VERTEX
  8
0
 10
303.52484126
 20
-30.38348
 30
0.0
  0
SEQEND
  8
0
  0
POLYLINE
  8
0
 62
0
 70
0
 66
1
 10
0.0
 20
0.0
 30
0.0
  0
VERTEX
  8
0
 10
323.07784
 20
-30.38348
 30
0.0
  0
VERTEX
  8
0
 10
323.07784
 20
-35.164014
 30
0.0
  0
VERTEX
  8
0
 10
321.22618
 20
-35.164014
 30
0.0
  0
VERTEX
  8
0
 10
321.22618
 20
-38.032436
 30
0.0
  0
VERTEX
  8
0
 10
323.07784
 20
-38.032436
 30
0.0
  0
VERTEX
  8
0
 10
323.07784
 20
-40.423084
 30
0.0
  0
VERTEX
  8
0
 10
325.882
 20
-40.423084
 30
0.0
  0
VERTEX
  8
0
 10
325.882
 20
-38.032436
 30
0.0
  0
VERTEX
  8
0
 10
327.73366
 20
-38.032436
 30
0.0
  0
VERTEX
  8
0
 10
327.73366
 20
-35.164014
 30
0.0
  0
VERTEX
  8
0
 10
325.882
 20
-35.164014
 30
0.0
  0
VERTEX
  8
0
 10
325.882
 20
-30.38348
 30
0.0
  0
SEQEND
  8
0
  0
POLYLINE
  8
0
 62
0
 70
0
 66
1
 10
0.0
 20
0.0
 30
0.0
  0
VERTEX
  8
0
 10
334.01762
 20
-30.38348
 30
0.0
  0
VERTEX
  8
0
 10
334.01762
 20
-27.347672
 30
0.0
  0
VERTEX
  8
0
 10
330.83881
 20
-27.347672
 30
0.0
  0
VERTEX
  8
0
 10
327.66
 20
-27.347672
 30
0.0
  0
VERTEX
  8
0
 10
327.66
 20
-30.38348
 30
0.0
  0
SEQEND
  8
0
  0
POLYLINE
  8
0
 62
0
 70
0
 66
1
 10
0.0
 20
0.0
 30
0.0
  0
VERTEX
  8
0
 10
321.30238
 20
-30.38348
 30
0.0
  0
VERTEX
  8
0
 10
321.30238
 20
-27.347672
 30
0.0
  0
VERTEX
  8
0
 10
318.12357
 20
-27.347672
 30
0.0
  0
VERTEX
  8
0
 10
314.94476
 20
-27.347672
 30
0.0
  0
VERTEX
  8
0
 10
314.94476
 20
-30.38348
 30
0.0
  0
SEQEND
  8
0
  0
POLYLINE
  8
0
 62
0
 70
0
 66
1
 10
0.0
 20
0.0
 30
0.0
  0
VERTEX
  8
0
 10
321.30238
 20
-30.38348
 30
0.0
  0
VERTEX
  8
0
 10
323.07784
 20
-30.38348
 30
0.0
  0
SEQEND
  8
0
  0
POLYLINE
  8
0
 62
0
 70
0
 66
1
 10
0.0
 20
0.0
 30
0.0
  0
VERTEX
  8
0
 10
325.882
 20
-30.38348
 30
0.0
  0
VERTEX
  8
0
 10
327.66
 20
-30.38348
 30
0.0
  0
SEQEND
  8
0
  0
POLYLINE
  8
0
 62
0
 70
0
 66
1
 10
0.0
 20
0.0
 30
0.0
  0
VERTEX
  8
0
 10
305.42992
 20
-58.061606
 30
0.0
  0
VERTEX
  8
0
 10
308.60492
 20
-58.061606
 30
0.0
  0
VERTEX
  8
0
 10
308.60492
 20
-61.236606
 30
0.0
  0
VERTEX
  8
0
 10
308.60492
 20
-64.411606
 30
0.0
  0
VERTEX
  8
0
 10
305.42992
 20
-64.411606
 30
0.0
  0
SEQEND
  8
0
  0
POLYLINE
  8
0
 62
0
 70
0
 66
1
 10
0.0
 20
0.0
 30
0.0
  0
VERTEX
  8
0
 10
305.42992
 20
-70.761606
 30
0.0
  0
VERTEX
  8
0
 10
308.60492
 20
-70.761606
 30
0.0
  0
VERTEX
  8
0
 10
308.60492
 20
-73.936606
 30
0.0
  0
VERTEX
  8
0
 10
308.60492
 20
-77.111606
 30
0.0
  0
VERTEX
  8
0
 10
305.42992
 20
-77.111606
 30
0.0
  0
SEQEND
  8
0
  0
POLYLINE
  8
0
 62
0
 70
0
 66
1
 10
0.0
 20
0.0
 30
0.0
  0
VERTEX
  8
0
 10
305.42992
 20
-58.061606
 30
0.0
  0
VERTEX
  8
0
 10
305.42992
 20
-61.236606
 30
0.0
  0
VERTEX
  8
0
 10
305.42992
 20
-64.411606
 30
0.0
  0
SEQEND
  8
0
  0
POLYLINE
  8
0
 62
0
 70
0
 66
1
 10
0.0
 20
0.0
 30
0.0
  0
VERTEX
  8
0
 10
305.42992
 20
-70.761606
 30
0.0
  0
VERTEX
  8
0
 10
305.42992
 20
-73.936606
 30
0.0
  0
VERTEX
  8
0
 10
305.42992
 20
-77.111606
 30
0.0
  0
SEQEND
  8
0
  0
POLYLINE
  8
0
 62
0
 70
0
 66
1
 10
0.0
 20
0.0
 30
0.0
  0
VERTEX
  8
0
 10
394.20292
 20
-92.189046
 30
0.0
  0
VERTEX
  8
0
 10
389.42264
 20
-92.189046
 30
0.0
  0
VERTEX
  8
0
 10
389.42264
 20
-90.339164
 30
0.0
  0
VERTEX
  8
0
 10
386.55498
 20
-90.339164
 30
0.0
  0
VERTEX
  8
0
 10
386.55498
 20
-92.189046
 30
0.0
  0
VERTEX
  8
0
 10
384.16484
 20
-92.189046
 30
0.0
  0
VERTEX
  8
0
 10
384.16484
 20
-94.989142
 30
0.0
  0
VERTEX
  8
0
 10
386.55498
 20
-94.989142
 30
0.0
  0
VERTEX
  8
0
 10
386.55498
 20
-96.839278
 30
0.0
  0
VERTEX
  8
0
 10
389.42264
 20
-96.839278
 30
0.0
  0
VERTEX
  8
0
 10
389.42264
 20
-94.989142
 30
0.0
  0
VERTEX
  8
0
 10
394.20292
 20
-94.989142
 30
0.0
  0
SEQEND
  8
0
  0
POLYLINE
  8
0
 62
0
 70
0
 66
1
 10
0.0
 20
0.0
 30
0.0
  0
VERTEX
  8
0
 10
394.20292
 20
-103.114348
 30
0.0
  0
VERTEX
  8
0
 10
397.24076
 20
-103.114348
 30
0.0
  0
VERTEX
  8
0
 10
397.24076
 20
-99.939348
 30
0.0
  0
VERTEX
  8
0
 10
397.24076
 20
-96.764348
 30
0.0
  0
VERTEX
  8
0
 10
394.20292
 20
-96.764348
 30
0.0
  0
SEQEND
  8
0
  0
POLYLINE
  8
0
 62
0
 70
0
 66
1
 10
0.0
 20
0.0
 30
0.0
  0
VERTEX
  8
0
 10
394.20292
 20
-90.414348
 30
0.0
  0
VERTEX
  8
0
 10
397.24076
 20
-90.414348
 30
0.0
  0
VERTEX
  8
0
 10
397.24076
 20
-87.239348
 30
0.0
  0
VERTEX
  8
0
 10
397.24076
 20
-84.064348
 30
0.0
  0
VERTEX
  8
0
 10
394.20292
 20
-84.064348
 30
0.0
  0
SEQEND
  8
0
  0
POLYLINE
  8
0
 62
0
 70
0
 66
1
 10
0.0
 20
0.0
 30
0.0
  0
VERTEX
  8
0
 10
394.20292
 20
-90.414348
 30
0.0
  0
VERTEX
  8
0
 10
394.20292
 20
-92.189046
 30
0.0
  0
SEQEND
  8
0
  0
POLYLINE
  8
0
 62
0
 70
0
 66
1
 10
0.0
 20
0.0
 30
0.0
  0
VERTEX
  8
0
 10
394.20292
 20
-94.989142
 30
0.0
  0
VERTEX
  8
0
 10
394.20292
 20
-96.764348
 30
0.0
  0
SEQEND
  8
0
  0
POLYLINE
  8
0
 62
0
 70
0
 66
1
 10
0.0
 20
0.0
 30
0.0
  0
VERTEX
  8
0
 10
394.20292
 20
-40.174418
 30
0.0
  0
VERTEX
  8
0
 10
389.42264
 20
-40.174418
 30
0.0
  0
VERTEX
  8
0
 10
389.42264
 20
-38.324536
 30
0.0
  0
VERTEX
  8
0
 10
386.55498
 20
-38.324536
 30
0.0
  0
VERTEX
  8
0
 10
386.55498
 20
-40.174418
 30
0.0
  0
VERTEX
  8
0
 10
384.16484
 20
-40.174418
 30
0.0
  0
VERTEX
  8
0
 10
384.16484
 20
-42.974514
 30
0.0
  0
VERTEX
  8
0
 10
386.55498
 20
-42.974514
 30
0.0
  0
VERTEX
  8
0
 10
386.55498
 20
-44.82465
 30
0.0
  0
VERTEX
  8
0
 10
389.42264
 20
-44.82465
 30
0.0
  0
VERTEX
  8
0
 10
389.42264
 20
-42.974514
 30
0.0
  0
VERTEX
  8
0
 10
394.20292
 20
-42.974514
 30
0.0
  0
SEQEND
  8
0
  0
POLYLINE
  8
0
 62
0
 70
0
 66
1
 10
0.0
 20
0.0
 30
0.0
  0
VERTEX
  8
0
 10
394.20292
 20
-51.09972
 30
0.0
  0
VERTEX
  8
0
 10
397.24076
 20
-51.09972
 30
0.0
  0
VERTEX
  8
0
 10
397.24076
 20
-47.92472
 30
0.0
  0
VERTEX
  8
0
 10
397.24076
 20
-44.74972
 30
0.0
  0
VERTEX
  8
0
 10
394.20292
 20
-44.74972
 30
0.0
  0
SEQEND
  8
0
  0
POLYLINE
  8
0
 62
0
 70
0
 66
1
 10
0.0
 20
0.0
 30
0.0
  0
VERTEX
  8
0
 10
394.20292
 20
-38.39972
 30
0.0
  0
VERTEX
  8
0
 10
397.24076
 20
-38.39972
 30
0.0
  0
VERTEX
  8
0
 10
397.24076
 20
-35.22472
 30
0.0
  0
VERTEX
  8
0
 10
397.24076
 20
-32.04972
 30
0.0
  0
VERTEX
  8
0
 10
394.20292
 20
-32.04972
 30
0.0
  0
SEQEND
  8
0
  0
POLYLINE
  8
0
 62
0
 70
0
 66
1
 10
0.0
 20
0.0
 30
0.0
  0
VERTEX
  8
0
 10
394.20292
 20
-38.39972
 30
0.0
  0
VERTEX
  8
0
 10
394.20292
 20
-40.174418
 30
0.0
  0
SEQEND
  8
0
  0
POLYLINE
  8
0
 62
0
 70
0
 66
1
 10
0.0
 20
0.0
 30
0.0
  0
VERTEX
  8
0
 10
394.20292
 20
-42.974514
 30
0.0
  0
VERTEX
  8
0
 10
394.20292
 20
-44.74972
 30
0.0
  0
SEQEND
  8
0
  0
POLYLINE
  8
0
 62
0
 70
0
 66
1
 10
0.0
 20
0.0
 30
0.0
  0
VERTEX
  8
0
 10
394.20292
 20
-104.789986
 30
0.0
  0
VERTEX
  8
0
 10
394.20292
 20
-103.114094
 30
0.0
  0
SEQEND
  8
0
  0
POLYLINE
  8
0
 62
0
 70
0
 66
1
 10
0.0
 20
0.0
 30
0.0
  0
VERTEX
  8
0
 10
352.29292
 20
-104.789986
 30
0.0
  0
VERTEX
  8
0
 10
356.098949133
 20
-104.789986
 30
0.0
  0
VERTEX
  8
0
 10
359.904978267
 20
-104.789986
 30
0.0
  0
VERTEX
  8
0
 10
363.7110074
 20
-104.789986
 30
0.0
  0
SEQEND
  8
0
  0
POLYLINE
  8
0
 62
0
 70
0
 66
1
 10
0.0
 20
0.0
 30
0.0
  0
VERTEX
  8
0
 10
370.0690084
 20
-104.789986
 30
0.0
  0
VERTEX
  8
0
 10
371.84640896
 20
-104.789986
 30
0.0
  0
SEQEND
  8
0
  0
POLYLINE
  8
0
 62
0
 70
0
 66
1
 10
0.0
 20
0.0
 30
0.0
  0
VERTEX
  8
0
 10
374.65001016
 20
-104.789986
 30
0.0
  0
VERTEX
  8
0
 10
376.42691034
 20
-104.789986
 30
0.0
  0
SEQEND
  8
0
  0
POLYLINE
  8
0
 62
0
 70
0
 66
1
 10
0.0
 20
0.0
 30
0.0
  0
VERTEX
  8
0
 10
382.78491134
 20
-104.789986
 30
0.0
  0
VERTEX
  8
0
 10
386.590915073
 20
-104.789986
 30
0.0
  0
VERTEX
  8
0
 10
390.396918807
 20
-104.789986
 30
0.0
  0
VERTEX
  8
0
 10
394.20292254
 20
-104.789986
 30
0.0
  0
SEQEND
  8
0
  0
POLYLINE
  8
0
 62
0
 70
0
 66
1
 10
0.0
 20
0.0
 30
0.0
  0
VERTEX
  8
0
 10
352.29292
 20
-30.38348
 30
0.0
  0
VERTEX
  8
0
 10
352.29292
 20
-35.3439137333
 30
0.0
  0
VERTEX
  8
0
 10
352.29292
 20
-40.3043474667
 30
0.0
  0
VERTEX
  8
0
 10
352.29292
 20
-45.2647812
 30
0.0
  0
VERTEX
  8
0
 10
352.29292
 20
-50.2252149333
 30
0.0
  0
VERTEX
  8
0
 10
352.29292
 20
-55.1856486667
 30
0.0
  0
VERTEX
  8
0
 10
352.29292
 20
-60.1460824
 30
0.0
  0
VERTEX
  8
0
 10
352.29292
 20
-65.1065161333
 30
0.0
  0
VERTEX
  8
0
 10
352.29292
 20
-70.0669498667
 30
0.0
  0
VERTEX
  8
0
 10
352.29292
 20
-75.0273836
 30
0.0
  0
VERTEX
  8
0
 10
352.29292
 20
-79.9878173333
 30
0.0
  0
VERTEX
  8
0
 10
352.29292
 20
-84.9482510667
 30
0.0
  0
VERTEX
  8
0
 10
352.29292
 20
-89.9086848
 30
0.0
  0
VERTEX
  8
0
 10
352.29292
 20
-94.8691185333
 30
0.0
  0
VERTEX
  8
0
 10
352.29292
 20
-99.8295522667
 30
0.0
  0
VERTEX
  8
0
 10
352.29292
 20
-104.789986
 30
0.0
  0
SEQEND
  8
0
  0
POLYLINE
  8
0
 62
0
 70
0
 66
1
 10
0.0
 20
0.0
 30
0.0
  0
VERTEX
  8
0
 10
394.20292
 20
-32.04972
 30
0.0
  0
VERTEX
  8
0
 10
394.20292
 20
-30.38348
 30
0.0
  0
SEQEND
  8
0
  0
POLYLINE
  8
0
 62
0
 70
0
 66
1
 10
0.0
 20
0.0
 30
0.0
  0
VERTEX
  8
0
 10
394.20292
 20
-84.064348
 30
0.0
  0
VERTEX
  8
0
 10
394.20292
 20
-79.3551154286
 30
0.0
  0
VERTEX
  8
0
 10
394.20292
 20
-74.6458828571
 30
0.0
  0
VERTEX
  8
0
 10
394.20292
 20
-69.9366502857
 30
0.0
  0
VERTEX
  8
0
 10
394.20292
 20
-65.2274177143
 30
0.0
  0
VERTEX
  8
0
 10
394.20292
 20
-60.5181851429
 30
0.0
  0
VERTEX
  8
0
 10
394.20292
 20
-55.8089525714
 30
0.0
  0
VERTEX
  8
0
 10
394.20292
 20
-51.09972
 30
0.0
  0
SEQEND
  8
0
  0
POLYLINE
  8
0
 62
0
 70
0
 66
1
 10
0.0
 20
0.0
 30
0.0
  0
VERTEX
  8
0
 10
374.65
 20
-104.789732
 30
0.0
  0
VERTEX
  8
0
 10
374.65
 20
-100.009452
 30
0.0
  0
VERTEX
  8
0
 10
376.5042
 20
-100.009452
 30
0.0
  0
VERTEX
  8
0
 10
376.5042
 20
-97.140776
 30
0.0
  0
VERTEX
  8
0
 10
374.65
 20
-97.140776
 30
0.0
  0
VERTEX
  8
0
 10
374.65
 20
-94.750128
 30
0.0
  0
VERTEX
  8
0
 10
371.84838
 20
-94.750128
 30
0.0
  0
VERTEX
  8
0
 10
371.84838
 20
-97.140776
 30
0.0
  0
VERTEX
  8
0
 10
369.99418
 20
-97.140776
 30
0.0
  0
VERTEX
  8
0
 10
369.99418
 20
-100.009452
 30
0.0
  0
VERTEX
  8
0
 10
371.84838
 20
-100.009452
 30
0.0
  0
VERTEX
  8
0
 10
371.84838
 20
-104.789732
 30
0.0
  0
SEQEND
  8
0
  0
POLYLINE
  8
0
 62
0
 70
0
 66
1
 10
0.0
 20
0.0
 30
0.0
  0
VERTEX
  8
0
 10
363.71276
 20
-104.789986
 30
0.0
  0
VERTEX
  8
0
 10
363.71276
 20
-107.825794
 30
0.0
  0
VERTEX
  8
0
 10
366.89157
 20
-107.825794
 30
0.0
  0
VERTEX
  8
0
 10
370.07038
 20
-107.825794
 30
0.0
  0
VERTEX
  8
0
 10
370.07038
 20
-104.789986
 30
0.0
  0
SEQEND
  8
0
  0
POLYLINE
  8
0
 62
0
 70
0
 66
1
 10
0.0
 20
0.0
 30
0.0
  0
VERTEX
  8
0
 10
376.428
 20
-104.789986
 30
0.0
  0
VERTEX
  8
0
 10
376.428
 20
-107.825794
 30
0.0
  0
VERTEX
  8
0
 10
379.60681
 20
-107.825794
 30
0.0
  0
VERTEX
  8
0
 10
382.78562
 20
-107.825794
 30
0.0
  0
VERTEX
  8
0
 10
382.78562
 20
-104.789986
 30
0.0
  0
SEQEND
  8
0
  0
POLYLINE
  8
0
 62
0
 70
0
 66
1
 10
0.0
 20
0.0
 30
0.0
  0
VERTEX
  8
0
 10
376.428
 20
-104.789986
 30
0.0
  0
VERTEX
  8
0
 10
374.65
 20
-104.789986
 30
0.0
  0
SEQEND
  8
0
  0
POLYLINE
  8
0
 62
0
 70
0
 66
1
 10
0.0
 20
0.0
 30
0.0
  0
VERTEX
  8
0
 10
371.84838
 20
-104.789986
 30
0.0
  0
VERTEX
  8
0
 10
370.07038
 20
-104.789986
 30
0.0
  0
SEQEND
  8
0
  0
POLYLINE
  8
0
 62
0
 70
0
 66
1
 10
0.0
 20
0.0
 30
0.0
  0
VERTEX
  8
0
 10
394.20292
 20
-30.38348
 30
0.0
  0
VERTEX
  8
0
 10
390.396890867
 20
-30.38348
 30
0.0
  0
VERTEX
  8
0
 10
386.590861733
 20
-30.38348
 30
0.0
  0
VERTEX
  8
0
 10
382.7848326
 20
-30.38348
 30
0.0
  0
SEQEND
  8
0
  0
POLYLINE
  8
0
 62
0
 70
0
 66
1
 10
0.0
 20
0.0
 30
0.0
  0
VERTEX
  8
0
 10
376.4268316
 20
-30.38348
 30
0.0
  0
VERTEX
  8
0
 10
374.64943104
 20
-30.38348
 30
0.0
  0
SEQEND
  8
0
  0
POLYLINE
  8
0
 62
0
 70
0
 66
1
 10
0.0
 20
0.0
 30
0.0
  0
VERTEX
  8
0
 10
371.84582984
 20
-30.38348
 30
0.0
  0
VERTEX
  8
0
 10
370.06892966
 20
-30.38348
 30
0.0
  0
SEQEND
  8
0
  0
POLYLINE
  8
0
 62
0
 70
0
 66
1
 10
0.0
 20
0.0
 30
0.0
  0
VERTEX
  8
0
 10
363.71092866
 20
-30.38348
 30
0.0
  0
VERTEX
  8
0
 10
359.904899527
 20
-30.38348
 30
0.0
  0
VERTEX
  8
0
 10
356.098870393
 20
-30.38348
 30
0.0
  0
VERTEX
  8
0
 10
352.29284126
 20
-30.38348
 30
0.0
  0
SEQEND
  8
0
  0
POLYLINE
  8
0
 62
0
 70
0
 66
1
 10
0.0
 20
0.0
 30
0.0
  0
VERTEX
  8
0
 10
371.84584
 20
-30.38348
 30
0.0
  0
VERTEX
  8
0
 10
371.84584
 20
-35.164014
 30
0.0
  0
VERTEX
  8
0
 10
369.99418
 20
-35.164014
 30
0.0
  0
VERTEX
  8
0
 10
369.99418
 20
-38.032436
 30
0.0
  0
VERTEX
  8
0
 10
371.84584
 20
-38.032436
 30
0.0
  0
VERTEX
  8
0
 10
371.84584
 20
-40.423084
 30
0.0
  0
VERTEX
  8
0
 10
374.65
 20
-40.423084
 30
0.0
  0
VERTEX
  8
0
 10
374.65
 20
-38.032436
 30
0.0
  0
VERTEX
  8
0
 10
376.50166
 20
-38.032436
 30
0.0
  0
VERTEX
  8
0
 10
376.50166
 20
-35.164014
 30
0.0
  0
VERTEX
  8
0
 10
374.65
 20
-35.164014
 30
0.0
  0
VERTEX
  8
0
 10
374.65
 20
-30.38348
 30
0.0
  0
SEQEND
  8
0
  0
POLYLINE
  8
0
 62
0
 70
0
 66
1
 10
0.0
 20
0.0
 30
0.0
  0
VERTEX
  8
0
 10
382.78562
 20
-30.38348
 30
0.0
  0
VERTEX
  8
0
 10
382.78562
 20
-27.347672
 30
0.0
  0
VERTEX
  8
0
 10
379.60681
 20
-27.347672
 30
0.0
  0
VERTEX
  8
0
 10
376.428
 20
-27.347672
 30
0.0
  0
VERTEX
  8
0
 10
376.428
 20
-30.38348
 30
0.0
  0
SEQEND
  8
0
  0
POLYLINE
  8
0
 62
0
 70
0
 66
1
 10
0.0
 20
0.0
 30
0.0
  0
VERTEX
  8
0
 10
370.07038
 20
-30.38348
 30
0.0
  0
VERTEX
  8
0
 10
370.07038
 20
-27.347672
 30
0.0
  0
VERTEX
  8
0
 10
366.89157
 20
-27.347672
 30
0.0
  0
VERTEX
  8
0
 10
363.71276
 20
-27.347672
 30
0.0
  0
VERTEX
  8
0
 10
363.71276
 20
-30.38348
 30
0.0
  0
SEQEND
  8
0
  0
POLYLINE
  8
0
 62
0
 70
0
 66
1
 10
0.0
 20
0.0
 30
0.0
  0
VERTEX
  8
0
 10
370.07038
 20
-30.38348
 30
0.0
  0
VERTEX
  8
0
 10
371.84584
 20
-30.38348
 30
0.0
  0
SEQEND
  8
0
  0
POLYLINE
  8
0
 62
0
 70
0
 66
1
 10
0.0
 20
0.0
 30
0.0
  0
VERTEX
  8
0
 10
374.65
 20
-30.38348
 30
0.0
  0
VERTEX
  8
0
 10
376.428
 20
-30.38348
 30
0.0
  0
SEQEND
  8
0
  0
POLYLINE
  8
0
 62
0
 70
0
 66
1
 10
0.0
 20
0.0
 30
0.0
  0
VERTEX
  8
0
 10
354.19792
 20
-58.061606
 30
0.0
  0
VERTEX
  8
0
 10
357.37292
 20
-58.061606
 30
0.0
  0
VERTEX
  8
0
 10
357.37292
 20
-61.236606
 30
0.0
  0
VERTEX
  8
0
 10
357.37292
 20
-64.411606
 30
0.0
  0
VERTEX
  8
0
 10
354.19792
 20
-64.411606
 30
0.0
  0
SEQEND
  8
0
  0
POLYLINE
  8
0
 62
0
 70
0
 66
1
 10
0.0
 20
0.0
 30
0.0
  0
VERTEX
  8
0
 10
354.19792
 20
-70.761606
 30
0.0
  0
VERTEX
  8
0
 10
357.37292
 20
-70.761606
 30
0.0
  0
VERTEX
  8
0
 10
357.37292
 20
-73.936606
 30
0.0
  0
VERTEX
  8
0
 10
357.37292
 20
-77.111606
 30
0.0
  0
VERTEX
  8
0
 10
354.19792
 20
-77.111606
 30
0.0
  0
SEQEND
  8
0
  0
POLYLINE
  8
0
 62
0
 70
0
 66
1
 10
0.0
 20
0.0
 30
0.0
  0
VERTEX
  8
0
 10
354.19792
 20
-58.061606
 30
0.0
  0
VERTEX
  8
0
 10
354.19792
 20
-61.236606
 30
0.0
  0
VERTEX
  8
0
 10
354.19792
 20
-64.411606
 30
0.0
  0
SEQEND
  8
0
  0
POLYLINE
  8
0
 62
0
 70
0
 66
1
 10
0.0
 20
0.0
 30
0.0
  0
VERTEX
  8
0
 10
354.19792
 20
-70.761606
 30
0.0
  0
VERTEX
  8
0
 10
354.19792
 20
-73.936606
 30
0.0
  0
VERTEX
  8
0
 10
354.19792
 20
-77.111606
 30
0.0
  0
SEQEND
  8
0
  0
POLYLINE
  8
0
 62
0
 70
0
 66
1
 10
0.0
 20
0.0
 30
0.0
  0
VERTEX
  8
0
 10
223.515682
 20
-68.988432
 30
0.0
  0
VERTEX
  8
0
 10
223.515682
 20
-70.76543124
 30
0.0
  0
SEQEND
  8
0
  0
POLYLINE
  8
0
 62
0
 70
0
 66
1
 10
0.0
 20
0.0
 30
0.0
  0
VERTEX
  8
0
 10
223.515682
 20
-77.12343224
 30
0.0
  0
VERTEX
  8
0
 10
223.515682
 20
-81.67231824
 30
0.0
  0
VERTEX
  8
0
 10
223.515682
 20
-86.22120424
 30
0.0
  0
VERTEX
  8
0
 10
223.515682
 20
-90.77009024
 30
0.0
  0
VERTEX
  8
0
 10
223.515682
 20
-95.31897624
 30
0.0
  0
VERTEX
  8
0
 10
223.515682
 20
-99.86786224
 30
0.0
  0
VERTEX
  8
0
 10
223.515682
 20
-104.41674824
 30
0.0
  0
VERTEX
  8
0
 10
228.064568
 20
-104.41674824
 30
0.0
  0
VERTEX
  8
0
 10
232.613454
 20
-104.41674824
 30
0.0
  0
VERTEX
  8
0
 10
237.16234
 20
-104.41674824
 30
0.0
  0
VERTEX
  8
0
 10
241.711226
 20
-104.41674824
 30
0.0
  0
VERTEX
  8
0
 10
246.260112
 20
-104.41674824
 30
0.0
  0
VERTEX
  8
0
 10
250.808998
 20
-104.41674824
 30
0.0
  0
SEQEND
  8
0
  0
POLYLINE
  8
0
 62
0
 70
0
 66
1
 10
0.0
 20
0.0
 30
0.0
  0
VERTEX
  8
0
 10
257.166999
 20
-104.41674824
 30
0.0
  0
VERTEX
  8
0
 10
260.3459487
 20
-104.41674824
 30
0.0
  0
VERTEX
  8
0
 10
263.5248984
 20
-104.41674824
 30
0.0
  0
SEQEND
  8
0
  0
POLYLINE
  8
0
 62
0
 70
0
 66
1
 10
0.0
 20
0.0
 30
0.0
  0
VERTEX
  8
0
 10
269.8828994
 20
-104.41674824
 30
0.0
  0
VERTEX
  8
0
 10
274.431700733
 20
-104.41674824
 30
0.0
  0
VERTEX
  8
0
 10
278.980502067
 20
-104.41674824
 30
0.0
  0
VERTEX
  8
0
 10
283.5293034
 20
-104.41674824
 30
0.0
  0
VERTEX
  8
0
 10
288.078104733
 20
-104.41674824
 30
0.0
  0
VERTEX
  8
0
 10
292.626906067
 20
-104.41674824
 30
0.0
  0
VERTEX
  8
0
 10
297.1757074
 20
-104.41674824
 30
0.0
  0
VERTEX
  8
0
 10
297.1757074
 20
-99.86786224
 30
0.0
  0
VERTEX
  8
0
 10
297.1757074
 20
-95.31897624
 30
0.0
  0
VERTEX
  8
0
 10
297.1757074
 20
-90.77009024
 30
0.0
  0
VERTEX
  8
0
 10
297.1757074
 20
-86.22120424
 30
0.0
  0
VERTEX
  8
0
 10
297.1757074
 20
-81.67231824
 30
0.0
  0
VERTEX
  8
0
 10
297.1757074
 20
-77.12343224
 30
0.0
  0
SEQEND
  8
0
  0
POLYLINE
  8
0
 62
0
 70
0
 66
1
 10
0.0
 20
0.0
 30
0.0
  0
VERTEX
  8
0
 10
297.1757074
 20
-70.76543124
 30
0.0
  0
VERTEX
  8
0
 10
297.1757074
 20
-68.988432
 30
0.0
  0
SEQEND
  8
0
  0
POLYLINE
  8
0
 62
0
 70
0
 66
1
 10
0.0
 20
0.0
 30
0.0
  0
VERTEX
  8
0
 10
297.1757074
 20
-66.1849324
 30
0.0
  0
VERTEX
  8
0
 10
297.1757074
 20
-64.40753184
 30
0.0
  0
SEQEND
  8
0
  0
POLYLINE
  8
0
 62
0
 70
0
 66
1
 10
0.0
 20
0.0
 30
0.0
  0
VERTEX
  8
0
 10
297.1757074
 20
-58.04953084
 30
0.0
  0
VERTEX
  8
0
 10
297.1757074
 20
-53.5007295067
 30
0.0
  0
VERTEX
  8
0
 10
297.1757074
 20
-48.9519281733
 30
0.0
  0
VERTEX
  8
0
 10
297.1757074
 20
-44.40312684
 30
0.0
  0
VERTEX
  8
0
 10
297.1757074
 20
-39.8543255067
 30
0.0
  0
VERTEX
  8
0
 10
297.1757074
 20
-35.3055241733
 30
0.0
  0
VERTEX
  8
0
 10
297.1757074
 20
-30.75672284
 30
0.0
  0
VERTEX
  8
0
 10
292.6268214
 20
-30.75672284
 30
0.0
  0
VERTEX
  8
0
 10
288.0779354
 20
-30.75672284
 30
0.0
  0
VERTEX
  8
0
 10
283.5290494
 20
-30.75672284
 30
0.0
  0
VERTEX
  8
0
 10
278.9801634
 20
-30.75672284
 30
0.0
  0
VERTEX
  8
0
 10
274.4312774
 20
-30.75672284
 30
0.0
  0
VERTEX
  8
0
 10
269.8823914
 20
-30.75672284
 30
0.0
  0
SEQEND
  8
0
  0
POLYLINE
  8
0
 62
0
 70
0
 66
1
 10
0.0
 20
0.0
 30
0.0
  0
VERTEX
  8
0
 10
263.5243904
 20
-30.75672284
 30
0.0
  0
VERTEX
  8
0
 10
260.3454407
 20
-30.75672284
 30
0.0
  0
VERTEX
  8
0
 10
257.166491
 20
-30.75672284
 30
0.0
  0
SEQEND
  8
0
  0
POLYLINE
  8
0
 62
0
 70
0
 66
1
 10
0.0
 20
0.0
 30
0.0
  0
VERTEX
  8
0
 10
250.80849
 20
-30.75672284
 30
0.0
  0
VERTEX
  8
0
 10
246.259688667
 20
-30.75672284
 30
0.0
  0
VERTEX
  8
0
 10
241.710887333
 20
-30.75672284
 30
0.0
  0
VERTEX
  8
0
 10
237.162086
 20
-30.75672284
 30
0.0
  0
VERTEX
  8
0
 10
232.613284667
 20
-30.75672284
 30
0.0
  0
VERTEX
  8
0
 10
228.064483333
 20
-30.75672284
 30
0.0
  0
VERTEX
  8
0
 10
223.515682
 20
-30.75672284
 30
0.0
  0
VERTEX
  8
0
 10
223.515682
 20
-35.3055241733
 30
0.0
  0
VERTEX
  8
0
 10
223.515682
 20
-39.8543255067
 30
0.0
  0
VERTEX
  8
0
 10
223.515682
 20
-44.40312684
 30
0.0
  0
VERTEX
  8
0
 10
223.515682
 20
-48.9519281733
 30
0.0
  0
VERTEX
  8
0
 10
223.515682
 20
-53.5007295067
 30
0.0
  0
VERTEX
  8
0
 10
223.515682
 20
-58.04953084
 30
0.0
  0
SEQEND
  8
0
  0
POLYLINE
  8
0
 62
0
 70
0
 66
1
 10
0.0
 20
0.0
 30
0.0
  0
VERTEX
  8
0
 10
223.515682
 20
-64.40753184
 30
0.0
  0
VERTEX
  8
0
 10
223.515682
 20
-66.1849324
 30
0.0
  0
SEQEND
  8
0
  0
POLYLINE
  8
0
 62
0
 70
0
 66
1
 10
0.0
 20
0.0
 30
0.0
  0
VERTEX
  8
0
 10
223.515682
 20
-68.988432
 30
0.0
  0
VERTEX
  8
0
 10
228.296216
 20
-68.988432
 30
0.0
  0
VERTEX
  8
0
 10
228.296216
 20
-70.840854
 30
0.0
  0
VERTEX
  8
0
 10
231.164638
 20
-70.840854
 30
0.0
  0
VERTEX
  8
0
 10
231.164638
 20
-68.988432
 30
0.0
  0
VERTEX
  8
0
 10
233.555286
 20
-68.988432
 30
0.0
  0
VERTEX
  8
0
 10
233.555286
 20
-66.18478
 30
0.0
  0
VERTEX
  8
0
 10
231.164638
 20
-66.18478
 30
0.0
  0
VERTEX
  8
0
 10
231.164638
 20
-64.332612
 30
0.0
  0
VERTEX
  8
0
 10
228.296216
 20
-64.332612
 30
0.0
  0
VERTEX
  8
0
 10
228.296216
 20
-66.18478
 30
0.0
  0
VERTEX
  8
0
 10
223.515682
 20
-66.18478
 30
0.0
  0
SEQEND
  8
0
  0
POLYLINE
  8
0
 62
0
 70
0
 66
1
 10
0.0
 20
0.0
 30
0.0
  0
VERTEX
  8
0
 10
223.515682
 20
-58.049414
 30
0.0
  0
VERTEX
  8
0
 10
220.479874
 20
-58.049414
 30
0.0
  0
VERTEX
  8
0
 10
220.479874
 20
-61.228478
 30
0.0
  0
VERTEX
  8
0
 10
220.479874
 20
-64.407542
 30
0.0
  0
VERTEX
  8
0
 10
223.515682
 20
-64.407542
 30
0.0
  0
SEQEND
  8
0
  0
POLYLINE
  8
0
 62
0
 70
0
 66
1
 10
0.0
 20
0.0
 30
0.0
  0
VERTEX
  8
0
 10
223.515682
 20
-70.765416
 30
0.0
  0
VERTEX
  8
0
 10
220.479874
 20
-70.765416
 30
0.0
  0
VERTEX
  8
0
 10
220.479874
 20
-73.944353
 30
0.0
  0
VERTEX
  8
0
 10
220.479874
 20
-77.12329
 30
0.0
  0
VERTEX
  8
0
 10
223.515682
 20
-77.12329
 30
0.0
  0
SEQEND
  8
0
  0
POLYLINE
  8
0
 62
0
 70
0
 66
1
 10
0.0
 20
0.0
 30
0.0
  0
VERTEX
  8
0
 10
297.17492
 20
-68.988432
 30
0.0
  0
VERTEX
  8
0
 10
292.39464
 20
-68.988432
 30
0.0
  0
VERTEX
  8
0
 10
292.39464
 20
-70.840854
 30
0.0
  0
VERTEX
  8
0
 10
289.52698
 20
-70.840854
 30
0.0
  0
VERTEX
  8
0
 10
289.52698
 20
-68.988432
 30
0.0
  0
VERTEX
  8
0
 10
287.13684
 20
-68.988432
 30
0.0
  0
VERTEX
  8
0
 10
287.13684
 20
-66.18478
 30
0.0
  0
VERTEX
  8
0
 10
289.52698
 20
-66.18478
 30
0.0
  0
VERTEX
  8
0
 10
289.52698
 20
-64.332612
 30
0.0
  0
VERTEX
  8
0
 10
292.39464
 20
-64.332612
 30
0.0
  0
VERTEX
  8
0
 10
292.39464
 20
-66.18478
 30
0.0
  0
VERTEX
  8
0
 10
297.17492
 20
-66.18478
 30
0.0
  0
SEQEND
  8
0
  0
POLYLINE
  8
0
 62
0
 70
0
 66
1
 10
0.0
 20
0.0
 30
0.0
  0
VERTEX
  8
0
 10
297.17492
 20
-58.049414
 30
0.0
  0
VERTEX
  8
0
 10
300.21276
 20
-58.049414
 30
0.0
  0
VERTEX
  8
0
 10
300.21276
 20
-61.228478
 30
0.0
  0
VERTEX
  8
0
 10
300.21276
 20
-64.407542
 30
0.0
  0
VERTEX
  8
0
 10
297.17492
 20
-64.407542
 30
0.0
  0
SEQEND
  8
0
  0
POLYLINE
  8
0
 62
0
 70
0
 66
1
 10
0.0
 20
0.0
 30
0.0
  0
VERTEX
  8
0
 10
297.17492
 20
-70.765416
 30
0.0
  0
VERTEX
  8
0
 10
300.21276
 20
-70.765416
 30
0.0
  0
VERTEX
  8
0
 10
300.21276
 20
-73.944353
 30
0.0
  0
VERTEX
  8
0
 10
300.21276
 20
-77.12329
 30
0.0
  0
VERTEX
  8
0
 10
297.17492
 20
-77.12329
 30
0.0
  0
SEQEND
  8
0
  0
POLYLINE
  8
0
 62
0
 70
0
 66
1
 10
0.0
 20
0.0
 30
0.0
  0
VERTEX
  8
0
 10
226.32797
 20
-47.465234292
 30
0.0
  0
VERTEX
  8
0
 10
226.32797
 20
-50.005233708
 30
0.0
  0
VERTEX
  8
0
 10
226.32797
 20
-47.465234292
 30
0.0
  0
SEQEND
  8
0
  0
POLYLINE
  8
0
 62
0
 70
0
 66
1
 10
0.0
 20
0.0
 30
0.0
  0
VERTEX
  8
0
 10
226.342956
 20
-33.482788292
 30
0.0
  0
VERTEX
  8
0
 10
226.342956
 20
-36.022787708
 30
0.0
  0
VERTEX
  8
0
 10
226.342956
 20
-33.482788292
 30
0.0
  0
SEQEND
  8
0
  0
POLYLINE
  8
0
 62
0
 70
0
 66
1
 10
0.0
 20
0.0
 30
0.0
  0
VERTEX
  8
0
 10
250.808744
 20
-30.756606
 30
0.0
  0
VERTEX
  8
0
 10
250.808744
 20
-27.720798
 30
0.0
  0
VERTEX
  8
0
 10
253.988062
 20
-27.720798
 30
0.0
  0
VERTEX
  8
0
 10
257.16738
 20
-27.720798
 30
0.0
  0
VERTEX
  8
0
 10
257.16738
 20
-30.756606
 30
0.0
  0
SEQEND
  8
0
  0
POLYLINE
  8
0
 62
0
 70
0
 66
1
 10
0.0
 20
0.0
 30
0.0
  0
VERTEX
  8
0
 10
263.525
 20
-30.756606
 30
0.0
  0
VERTEX
  8
0
 10
263.525
 20
-27.720798
 30
0.0
  0
VERTEX
  8
0
 10
266.70381
 20
-27.720798
 30
0.0
  0
VERTEX
  8
0
 10
269.88262
 20
-27.720798
 30
0.0
  0
VERTEX
  8
0
 10
269.88262
 20
-30.756606
 30
0.0
  0
SEQEND
  8
0
  0
POLYLINE
  8
0
 62
0
 70
0
 66
1
 10
0.0
 20
0.0
 30
0.0
  0
VERTEX
  8
0
 10
263.525
 20
-30.756606
 30
0.0
  0
VERTEX
  8
0
 10
261.747
 20
-30.756606
 30
0.0
  0
SEQEND
  8
0
  0
POLYLINE
  8
0
 62
0
 70
0
 66
1
 10
0.0
 20
0.0
 30
0.0
  0
VERTEX
  8
0
 10
258.94284
 20
-30.756606
 30
0.0
  0
VERTEX
  8
0
 10
257.16738
 20
-30.756606
 30
0.0
  0
SEQEND
  8
0
  0
POLYLINE
  8
0
 62
0
 70
0
 66
1
 10
0.0
 20
0.0
 30
0.0
  0
VERTEX
  8
0
 10
258.94284
 20
-30.756606
 30
0.0
  0
VERTEX
  8
0
 10
261.747
 20
-30.756606
 30
0.0
  0
SEQEND
  8
0
  0
POLYLINE
  8
0
 62
0
 70
0
 66
1
 10
0.0
 20
0.0
 30
0.0
  0
VERTEX
  8
0
 10
269.88262
 20
-104.41686
 30
0.0
  0
VERTEX
  8
0
 10
269.88262
 20
-107.452668
 30
0.0
  0
VERTEX
  8
0
 10
266.70381
 20
-107.452668
 30
0.0
  0
VERTEX
  8
0
 10
263.525
 20
-107.452668
 30
0.0
  0
VERTEX
  8
0
 10
263.525
 20
-104.41686
 30
0.0
  0
SEQEND
  8
0
  0
POLYLINE
  8
0
 62
0
 70
0
 66
1
 10
0.0
 20
0.0
 30
0.0
  0
VERTEX
  8
0
 10
257.16738
 20
-104.41686
 30
0.0
  0
VERTEX
  8
0
 10
257.16738
 20
-107.452668
 30
0.0
  0
VERTEX
  8
0
 10
253.988189
 20
-107.452668
 30
0.0
  0
VERTEX
  8
0
 10
250.808998
 20
-107.452668
 30
0.0
  0
VERTEX
  8
0
 10
250.808998
 20
-104.41686
 30
0.0
  0
SEQEND
  8
0
  0
POLYLINE
  8
0
 62
0
 70
0
 66
1
 10
0.0
 20
0.0
 30
0.0
  0
VERTEX
  8
0
 10
257.16738
 20
-104.41686
 30
0.0
  0
VERTEX
  8
0
 10
258.94284
 20
-104.41686
 30
0.0
  0
SEQEND
  8
0
  0
POLYLINE
  8
0
 62
0
 70
0
 66
1
 10
0.0
 20
0.0
 30
0.0
  0
VERTEX
  8
0
 10
261.747
 20
-104.41686
 30
0.0
  0
VERTEX
  8
0
 10
263.525
 20
-104.41686
 30
0.0
  0
SEQEND
  8
0
  0
POLYLINE
  8
0
 62
0
 70
0
 66
1
 10
0.0
 20
0.0
 30
0.0
  0
VERTEX
  8
0
 10
261.747
 20
-104.416606
 30
0.0
  0
VERTEX
  8
0
 10
258.94284
 20
-104.416606
 30
0.0
  0
SEQEND
  8
0
  0
POLYLINE
  8
0
 62
0
 70
0
 66
1
 10
0.0
 20
0.0
 30
0.0
  0
VERTEX
  8
0
 10
189.630812
 20
-94.275656
 30
0.0
  0
VERTEX
  8
0
 10
186.836812
 20
-94.275656
 30
0.0
  0
VERTEX
  8
0
 10
189.630812
 20
-94.275656
 30
0.0
  0
SEQEND
  8
0
  0
POLYLINE
  8
0
 62
0
 70
0
 66
1
 10
0.0
 20
0.0
 30
0.0
  0
VERTEX
  8
0
 10
171.850812
 20
-94.275656
 30
0.0
  0
VERTEX
  8
0
 10
169.056812
 20
-94.275656
 30
0.0
  0
VERTEX
  8
0
 10
171.850812
 20
-94.275656
 30
0.0
  0
SEQEND
  8
0
  0
POLYLINE
  8
0
 62
0
 70
0
 66
1
 10
0.0
 20
0.0
 30
0.0
  0
VERTEX
  8
0
 10
189.630812
 20
-40.897556
 30
0.0
  0
VERTEX
  8
0
 10
186.836812
 20
-40.897556
 30
0.0
  0
VERTEX
  8
0
 10
189.630812
 20
-40.897556
 30
0.0
  0
SEQEND
  8
0
  0
POLYLINE
  8
0
 62
0
 70
0
 66
1
 10
0.0
 20
0.0
 30
0.0
  0
VERTEX
  8
0
 10
171.850812
 20
-40.897556
 30
0.0
  0
VERTEX
  8
0
 10
169.056812
 20
-40.897556
 30
0.0
  0
VERTEX
  8
0
 10
171.850812
 20
-40.897556
 30
0.0
  0
SEQEND
  8
0
  0
POLYLINE
  8
0
 62
0
 70
0
 66
1
 10
0.0
 20
0.0
 30
0.0
  0
VERTEX
  8
0
 10
202.203812
 20
-30.756606
 30
0.0
  0
VERTEX
  8
0
 10
202.203812
 20
-34.1432726667
 30
0.0
  0
VERTEX
  8
0
 10
202.203812
 20
-37.5299393333
 30
0.0
  0
VERTEX
  8
0
 10
202.203812
 20
-40.916606
 30
0.0
  0
VERTEX
  8
0
 10
203.473812
 20
-42.18670506
 30
0.0
  0
VERTEX
  8
0
 10
206.860478667
 20
-42.1866717266
 30
0.0
  0
VERTEX
  8
0
 10
210.247145333
 20
-42.1866383933
 30
0.0
  0
VERTEX
  8
0
 10
213.633812
 20
-42.1866050599
 30
0.0
  0
VERTEX
  8
0
 10
216.173812
 20
-42.1865050599
 30
0.0
  0
SEQEND
  8
0
  0
POLYLINE
  8
0
 62
0
 70
0
 66
1
 10
0.0
 20
0.0
 30
0.0
  0
VERTEX
  8
0
 10
156.964634
 20
-30.756606
 30
0.0
  0
VERTEX
  8
0
 10
156.964634
 20
-32.661606
 30
0.0
  0
SEQEND
  8
0
  0
POLYLINE
  8
0
 62
0
 70
0
 66
1
 10
0.0
 20
0.0
 30
0.0
  0
VERTEX
  8
0
 10
150.4645454
 20
-30.75670506
 30
0.0
  0
VERTEX
  8
0
 10
150.4645454
 20
-32.026606
 30
0.0
  0
SEQEND
  8
0
  0
POLYLINE
  8
0
 62
0
 70
0
 66
1
 10
0.0
 20
0.0
 30
0.0
  0
VERTEX
  8
0
 10
150.4645454
 20
-32.026606
 30
0.0
  0
VERTEX
  8
0
 10
150.4645454
 20
-32.67380562
 30
0.0
  0
VERTEX
  8
0
 10
150.4645454
 20
-33.296606
 30
0.0
  0
VERTEX
  8
0
 10
151.7345454
 20
-34.566606
 30
0.0
  0
VERTEX
  8
0
 10
155.694634
 20
-34.566606
 30
0.0
  0
VERTEX
  8
0
 10
156.964634
 20
-33.296606
 30
0.0
  0
VERTEX
  8
0
 10
156.964634
 20
-32.661606
 30
0.0
  0
SEQEND
  8
0
  0
ENDSEC
  0
EOF
